<?xml version="1.0" encoding="UTF-8"?>
<!DOCTYPE svg PUBLIC "-//W3C//DTD SVG 1.1//EN" "http://www.w3.org/Graphics/SVG/1.1/DTD/svg11.dtd">
<!-- Creator: CorelDRAW 2020 (64 Bit) -->
<svg xmlns="http://www.w3.org/2000/svg" xml:space="preserve" width="621px" height="495px" version="1.1" style="shape-rendering:geometricPrecision; text-rendering:geometricPrecision; image-rendering:optimizeQuality; fill-rule:evenodd; clip-rule:evenodd"
viewBox="0 0 619.32 494.22"
 xmlns:xlink="http://www.w3.org/1999/xlink"
 xmlns:xodm="http://www.corel.com/coreldraw/odm/2003">
 <defs>
  <style type="text/css">
   <![CDATA[
    .fil1 {fill:#020202}
    .fil5 {fill:#295F9B}
    .fil7 {fill:#2B2B2B}
    .fil2 {fill:#5A7996}
    .fil6 {fill:#5B9761}
    .fil4 {fill:#DADEE8}
    .fil3 {fill:#FEF0F0}
    .fil0 {fill:#FEFEFE;fill-rule:nonzero}
   ]]>
  </style>
     <clipPath id="id0">
      <path d="M110.82 255.5l338.74 0 0 90.82 -338.74 0 0 -90.82z"/>
     </clipPath>
     <clipPath id="id1">
      <path d="M148.49 351.3l268.82 0 0 72.08 -268.82 0 0 -72.08z"/>
     </clipPath>
 </defs>
 <g id="Camada_x0020_1">
  <metadata id="CorelCorpID_0Corel-Layer"/>
  <g id="_1767671598512">
   <g>
    <g style="clip-path:url(#id0)">
     <image x="110.82" y="255.5" width="338.74" height="90.82" xlink:href="gameover_Images\gameover_ImgID1.png"/>
    </g>
   </g>
   <path class="fil0" d="M190.53 332.29l-49.91 0 0 -10.18 -9.98 0 0 -9.78 -9.98 0 0 -29.94 9.98 0 0 -9.98 9.98 0 0 -9.98 49.91 0 0 9.98 -39.93 0 0 9.98 -9.98 0 0 29.94 9.98 0 0 9.98 19.96 0 0 -19.96 -9.98 0 0 -9.98 29.95 0 0 39.92zm82.63 0l-19.96 0 0 -19.96 -29.94 0 0 19.96 -19.96 0 0 -49.9 9.98 0 0 -9.98 9.98 0 0 -9.98 29.94 0 0 9.98 9.98 0 0 9.98 9.98 0 0 49.9zm-19.96 -29.94l0 -19.96 -9.98 0 0 -9.98 -9.98 0 0 9.98 -9.98 0 0 19.96 29.94 0zm102.6 29.94l-19.96 0 0 -29.94 -9.98 0 0 9.98 -9.98 0 0 -9.98 -9.98 0 0 29.94 -19.96 0 0 -69.86 19.96 0 0 9.98 9.98 0 0 9.98 9.98 0 0 -9.98 9.98 0 0 -9.98 19.96 0 0 69.86zm82.64 0l-69.86 0 0 -69.86 69.86 0 0 9.98 -49.9 0 0 19.96 39.92 0 0 9.98 -39.92 0 0 19.96 49.9 0 0 9.98z"/>
   <g>
    <g style="clip-path:url(#id1)">
     <image x="148.49" y="351.3" width="268.82" height="72.08" xlink:href="gameover_Images\gameover_ImgID2.png"/>
    </g>
   </g>
   <path class="fil0" d="M208.9 404.96l-7.92 0 0 7.92 -39.6 0 0 -7.92 -7.92 0 0 -39.6 7.92 0 0 -7.92 39.6 0 0 7.92 7.92 0 0 39.6zm-15.84 0l0 -39.6 -23.76 0 0 39.6 23.76 0zm81.42 -15.84l-7.92 0 0 7.92 -7.92 0 0 7.92 -7.92 0 0 7.92 -7.92 0 0 -7.92 -7.92 0 0 -7.92 -7.92 0 0 -7.92 -7.92 0 0 -31.68 15.84 0 0 23.76 7.92 0 0 7.92 7.92 0 0 -7.92 7.92 0 0 -23.76 15.84 0 0 31.68zm65.58 23.76l-55.44 0 0 -55.44 55.44 0 0 7.92 -39.6 0 0 15.84 31.68 0 0 7.92 -31.68 0 0 15.84 39.6 0 0 7.92zm65.58 0l-23.76 0 0 -7.92 -7.92 0 0 -7.92 -7.92 0 0 15.84 -15.84 0 0 -55.44 47.52 0 0 7.92 7.92 0 0 23.76 -15.84 0 0 7.92 7.92 0 0 7.92 7.92 0 0 7.92zm-15.84 -31.68l0 -15.84 -23.76 0 0 23.76 15.84 0 0 -7.92 7.92 0z"/>
   <path class="fil1" d="M468.62 117.95c-1.04,0.54 -2.81,-0.22 -3.86,-0.46 -10.66,-2.4 -20.57,-3.01 -31.62,-1.53 -9.46,1.26 -23.54,5.57 -30.05,10.09l4.43 1.95 9.19 6.22c1.22,0.99 1.53,1.61 3.01,2.38 7.33,-3.38 14.17,-5.31 23.39,-4.58 9.27,0.74 18.79,4.32 25.42,9.71 3.63,2.97 7.32,6.92 9.84,11.08 3.4,5.61 6.73,13.82 6.11,21.96 -1.49,19.72 -33.17,44.31 -59.46,28.94 -3.3,-1.94 -8.44,-5.84 -8.44,-5.84 -9.13,4.13 -14.01,7.16 -26.49,3.41 -4.2,-1.27 -7.78,-2.87 -11.4,-4.98l-7.45 -4.75c-2.59,-1.84 -0.91,-1.27 -2.82,-1.95 0.34,13.43 5.37,27.25 12.83,37.64 1.83,2.55 5.79,7.7 7.76,8.95l3.49 -9.38c1.18,-2.72 3.34,-6.33 4.15,-8.86l0.26 1.43c-0.01,0.22 -0.21,1.22 -0.25,1.48 -0.74,3.89 -2.07,11.81 -4.02,14.82 -0.99,1.51 -2.24,2.85 -3.3,4.4 -1.04,1.51 -1.54,3.51 -2.17,5.15 -2.9,7.56 -5.86,9.01 -8.37,12.57 -0.14,0.19 -0.29,0.42 -0.42,0.67 -0.43,0.82 0.14,-0.72 -0.35,0.8 3.25,1 3.96,1.46 5.45,4.14 1.59,2.85 1.52,5.55 2.39,7.33 0.86,-2.58 0.32,-11.28 2.97,-15.81 5.83,-9.99 2.57,-5.94 5.71,-13.13 1.97,-4.5 8.76,-12.06 12.38,-15.9l4.76 -4.88c-1.08,2.7 -13.81,20.07 -14.36,22.2 4.81,4.51 18.81,9.97 26.05,11.69 5.37,1.27 11.09,2.1 16.93,2.03 4.04,-0.05 13.11,-1.18 16.28,-2.55 -0.3,-0.69 -2.56,-3.28 -2.9,-3.63 -1.05,-1.09 -2.3,-2.5 -2.97,-3.82l1.78 -1.26c0.81,0.68 1.54,1.64 2.5,2.27 0.53,1.32 3.49,4.4 4.52,5.62 4.68,-0.9 12.82,-4.7 17.07,-6.87l11.49 -6.66c0.78,-0.54 1.05,-0.75 1.83,-1.29l1.24 -0.94c0.76,-0.77 -0.14,0.43 0.61,-0.75 -2.87,-0.97 -6.27,-3.04 -9.76,-3.92l-2.74 -0.96 0.68 -2.35 5.29 1.63c3.12,1.45 5.91,2.7 8.82,4.09 2.56,-1.26 9.74,-8.17 11.45,-10.19 1.99,-2.36 8.08,-9.47 9.12,-12.85 -1.62,-1.07 -7.89,-2.27 -10.17,-2.57l-9.71 -1.89 0.56 -2.51 9.9 1.87 10.85 2.55c3.42,-8.54 5.16,-13.6 4.06,-24.25 -2,-19.31 -11.24,-36.24 -24.13,-49.46 -2.31,-2.38 -5.3,-5.24 -7.95,-7.18 -2.38,-1.97 -5.83,-4.22 -8.89,-5.98 -5.57,-3.19 -5.02,-2.4 -9.17,-4.2 -1.88,-0.81 -1.01,-0.25 -0.7,-0.66 4.86,0.44 9.53,3.49 13.61,5.65 0.83,-3.58 7.04,-13.89 9.56,-17.66 4.71,-7.05 9.79,-12.91 16.15,-18.05l11.83 -9.11c1.4,-1.05 2.51,-1.71 3.89,-2.74l7.27 -5.29c0.06,-0.04 0.14,-0.1 0.2,-0.15 11.01,-7.89 37.03,-24.69 47.41,-29.35 8.61,-3.86 10.6,-0.74 17.36,6.02 5.36,5.35 11.14,12.58 15.08,19.12 3.18,5.29 4.29,8.58 5.23,15.35 0.53,3.88 1.31,8.46 1.41,12.55 0.06,2.42 0.7,7 1.05,11.23l0 7.62c-0.06,0.3 -0.13,0.58 -0.22,0.82l-0.23 0.47c-0.05,0.09 -0.2,0.35 -0.25,0.44 -2.14,4 -6.77,6.01 -10.53,8.31 -2.55,1.56 -6.99,2.69 -10.15,3.82 -6.97,2.49 -14.09,4.32 -21.15,6.41 -6.99,2.06 -14.4,4.2 -21.4,6.16l-21.79 5.79c-3.48,1.01 -19.22,4.46 -21.76,5.8 0.33,1.4 0.92,2.07 1.64,3.26 4.51,7.49 8.03,15.9 9.73,24.43 0.08,0.39 0.25,0.86 0.33,1.36 0.04,0.23 0.14,1.18 0.26,1.9 1.2,7.59 1.51,14.54 -0.56,22.33 -0.42,1.56 -0.46,2.42 -1.02,3.86 -0.53,1.34 -1.18,2.39 -1.31,3.93 9.43,6.31 8.03,22.71 17.39,29.73 3.1,2.32 5.63,2.1 8.79,2.74 1.85,0.38 0.74,0.83 0.69,2.78 -4.09,0 -9.25,-1.92 -11.57,-3.78 -4.17,-3.34 -6.68,-9.31 -8.72,-14.32 -1.67,-4.1 -2.79,-11.57 -6.8,-14.14 -1.09,-0.69 0.16,-0.43 -1.52,-0.57 -0.38,1.62 -3.03,5.61 -4.05,7.12 -1.51,2.26 -2.92,4.42 -4.76,6.41l-8.2 8.55c-1.01,1.02 -2.12,1.56 -2.88,2.7 2.78,0.74 4.2,6.96 4.2,9.41 0,4.71 -0.36,8.38 -0.36,13.27 0,6.41 -0.09,12.3 4.73,15.86 1.18,0.88 2.92,2.3 4.34,2.64 -0.03,1.42 -0.21,1.51 -0.7,2.44 -2.73,-0.23 -6.84,-4.17 -8.18,-6.13 -7.52,-11.05 1.95,-30.57 -5.78,-35.75 -1.54,0.37 -9.11,6.19 -11.31,7.53 -5.32,3.27 -11.14,6.25 -17,8.48 -1.56,0.59 -3.51,1.09 -4.84,1.79 0.33,1.22 5.65,7.74 6.96,10.14 3.47,6.35 5.22,9.29 0.72,15.69 -6.7,9.53 -13.26,10.3 -11.61,17.18 0.62,2.58 2.32,4.81 2.89,7.24 -0.83,0.44 -1.19,0.81 -2.1,1.05 -8.48,-16.04 -1.31,-13.75 7.23,-25.23 6.14,-8.25 4.51,-8.53 -2.83,-19.65 -0.76,-1.15 -3.61,-5.14 -4.4,-5.72 -4.07,0.95 -8.71,2.15 -13,2.7 -1.78,0.23 -3.74,0.13 -5.24,0.35 -6.27,0.89 -21.13,-2.88 -27.02,-5.24 -6.27,-2.51 -11.9,-5.69 -17.48,-9.4 -0.66,-0.43 -0.98,-0.64 -1.65,-1.14 -1.12,-0.82 -0.44,-0.76 -1.91,-0.88 -0.53,2.27 -1.92,3.76 -3.34,10.97 -0.34,1.74 -0.58,2.27 -0.98,3.89 -0.76,3.02 -4.57,12.62 -4.75,14.8l-7.27 -3.19c-2.02,-0.74 -6.31,-1.35 -9.13,-1.35 0.04,-2.02 2.62,-7.61 3.63,-8.93 4.08,-5.31 4.37,-6.76 7.84,-12.4 0.04,-0.06 0.09,-0.15 0.13,-0.21l1.87 -2.67c1.75,-2.56 3.6,-4.84 5.02,-7.54 -5.46,-3.66 -18.57,-21.57 -19.89,-27.22l-12.36 0.89c-4.54,0.66 -15.23,1.32 -17.36,5.33 -1,1.88 -1.63,4.16 -2.12,6.6 -0.98,4.93 -0.22,10.12 -4.36,13.79 -1.3,1.15 -3.9,2.88 -6.02,3.05 -0.49,-0.92 -0.66,-1.01 -0.7,-2.44 1.4,-0.33 4.76,-2.14 5.67,-3.05 3.5,-3.48 1.66,-15.04 6.29,-20.59 2.6,-3.11 8.12,-3.88 13.06,-4.73 2.38,-0.41 5.26,-0.33 8.04,-0.69 2.42,-0.32 5.57,-0.6 8.47,-0.6 -0.18,-2.15 -2.48,-6.9 -3.19,-9.37 -0.62,-2.15 -2,-8.6 -2.05,-10.87 -5.88,0 -17.39,-0.45 -20.99,4.13 -1.3,1.65 -2.43,2.91 -3.64,4.73 -7,10.52 -5.33,15.57 -17.94,15.57l0 -2.79c7.19,0 8.08,-0.4 10.7,-5.71 1.75,-3.53 4.12,-7.37 6.35,-10.4 1.02,-1.4 2.59,-3.46 3.93,-4.44l2.52 -1.67c5.43,-2.49 12.1,-2.21 18.72,-2.21 0,-5.38 -0.89,-4.94 -3.79,-8.77 -3.35,-4.45 -5.64,-9.16 -6.53,-15.45 -1.2,-8.4 1.38,-19.98 7.1,-26.46 1.72,-1.95 2.06,-2.51 4.16,-4.22 1.62,-1.31 3.29,-2.52 5.22,-3.5 6.19,-3.16 14.39,-4.07 21.77,-4.07 6.95,0 3.91,1.02 12.35,-3.69 5.82,-3.24 20.06,-6.72 26.86,-7.68 5.17,-0.73 3.04,1.06 3.39,-4.67 0.07,-1.28 0.17,-0.73 0.04,-1.58 -0.6,-3.87 -0.06,-3.33 -0.23,-5.29 -0.63,-7.5 -3.59,-15.45 -2.55,-23.41 0.85,-6.56 4.73,-21.19 6.66,-27.88 0.37,-1.26 0.62,-2.15 0.9,-3.29l3.09 -10.17c3.2,-11.37 9.03,-23.95 15.41,-34.14l0.56 -0.84c0.79,-1.06 1.43,-1.75 2.94,-1.93l1.59 0c6.63,0.6 21.38,7.64 27.44,10.07 4.9,1.96 8.93,5.44 11.79,9.84l8.68 13.31c4.59,7.11 8.58,14.91 11.74,22.8 2.03,5.07 -1.99,7.38 -5.13,10.54l-9.03 8.07c-0.78,0.61 -1.59,1.21 -2.31,1.88l-13.97 11.85c-6.22,5.42 -12.83,10.43 -19.01,15.89 -1.07,0.94 -1.07,1.39 -2.2,2.34l-5.44 5.37c-1.09,0.92 -3.04,1.71 -3.44,3.19l9.47 2.8z"/>
   <path class="fil2" d="M486.05 128.79c-0.53,0.63 -0.91,-0.27 0.28,1.02 0.08,0.09 0.83,0.7 0.97,0.82 7.89,7.18 16.86,21.59 20.41,31.9 2.49,7.25 4.41,15.44 4.32,23.81 -0.05,4.73 -3.49,20.19 -6.83,21.07l-9.9 -1.87 -0.56 2.51 9.71 1.89c-4.59,7.01 -7.63,10.92 -13.88,16.54 -1,0.9 -4.81,3.87 -5.34,4.98l-5.29 -1.63 -0.68 2.35 2.74 0.96c-0.62,2.25 -16.59,10.37 -19.46,11.71 -2.43,1.13 -5.31,1.9 -7.54,3.1 -0.96,-0.63 -1.69,-1.59 -2.5,-2.27l-1.78 1.26c0.67,1.32 1.92,2.73 2.97,3.82 0.34,0.35 2.6,2.94 2.9,3.63 -3.17,1.37 -12.24,2.5 -16.28,2.55 -5.84,0.07 -11.56,-0.76 -16.93,-2.03 -7.24,-1.72 -21.24,-7.18 -26.05,-11.69 0.55,-2.13 13.28,-19.5 14.36,-22.2l-4.76 4.88c-3.62,3.84 -10.41,11.4 -12.38,15.9 -3.14,7.19 0.12,3.14 -5.71,13.13 -2.65,4.53 -2.11,13.23 -2.97,15.81 -0.87,-1.78 -0.8,-4.48 -2.39,-7.33 -1.49,-2.68 -2.2,-3.14 -5.45,-4.14 0.49,-1.52 -0.08,0.02 0.35,-0.8 0.13,-0.25 0.28,-0.48 0.42,-0.67 2.51,-3.56 5.47,-5.01 8.37,-12.57 0.63,-1.64 1.13,-3.64 2.17,-5.15 1.06,-1.55 2.31,-2.89 3.3,-4.4 1.95,-3.01 3.28,-10.93 4.02,-14.82 0.04,-0.26 0.24,-1.26 0.25,-1.48l-0.26 -1.43c-0.81,2.53 -2.97,6.14 -4.15,8.86l-3.49 9.38c-1.97,-1.25 -5.93,-6.4 -7.76,-8.95 -7.46,-10.39 -12.49,-24.21 -12.83,-37.64 1.91,0.68 0.23,0.11 2.82,1.95l7.45 4.75c3.62,2.11 7.2,3.71 11.4,4.98 12.48,3.75 17.36,0.72 26.49,-3.41 0,0 5.14,3.9 8.44,5.84 26.29,15.37 57.97,-9.22 59.46,-28.94 0.62,-8.14 -2.71,-16.35 -6.11,-21.96 -2.52,-4.16 -6.21,-8.11 -9.84,-11.08 -6.63,-5.39 -16.15,-8.97 -25.42,-9.71 -9.22,-0.73 -16.06,1.2 -23.39,4.58 -1.48,-0.77 -1.79,-1.39 -3.01,-2.38l-9.19 -6.22c1.66,0.18 3.03,-0.93 4.59,-1.63 3.82,-1.72 9.52,-3.53 13.56,-4.59 6.8,-1.79 14.24,-2.68 21.62,-2.56 9.92,0.17 21.45,2.55 30.44,5.95 1.86,0.7 6.98,2.63 8.32,3.62z"/>
   <path class="fil3" d="M510.1 149.27c-1.01,-1.01 -1.83,-2.38 -2.7,-3.5 -1,-1.29 -1.88,-2.24 -2.82,-3.46 -0.98,-1.26 -1.97,-2.08 -3.01,-3.28 -1.1,-1.27 -2.01,-2.24 -3.24,-3.39 -7.9,-7.39 -8.19,-6.23 -14.26,-11.06 1.78,-5.44 11.64,-18.27 15.51,-23.08 7.2,-8.96 27.9,-21.65 37.55,-27.71 9.26,-5.82 30.78,-19 40.96,-23.94 5.21,-2.52 6.28,-4.19 8.87,-2.13 6.15,4.89 21.48,20.09 24.35,27.65 2.18,5.7 3.27,15.87 3.55,22.69 0.16,4.06 0.22,8.71 -0.34,12.73 -0.32,2.37 -0.92,2.53 -2.67,3.52 -1.54,0.87 -2.89,1.44 -4.52,2.09 -6.01,2.41 -13.59,4.22 -20.01,6.18 -22.39,6.83 -45.36,15.39 -67.49,23.21 -2.84,1 -6.96,2.9 -9.73,3.48z"/>
   <path class="fil3" d="M513.87 58.62c-1.06,1.67 -4.95,5.34 -6.77,7.13l-17.92 17.32c-1.29,1.28 -2.57,2.19 -3.91,3.42l-21.41 20.82c-2.39,2.41 -4.68,4.65 -7.15,7.2 -3.11,-0.13 -7.09,-1.15 -10.48,-1.45 -4.1,-0.36 -7.81,-0.27 -11.9,-0.27 -0.28,-9.65 -1.99,-23.37 -0.77,-32.6 0.45,-3.45 2.87,-9.48 3.96,-12.84 4.17,-12.93 8.5,-25.29 12.49,-38.42 1.89,-6.21 5.94,-21.33 9.14,-25.22 4.92,-0.18 16.15,5.41 19.94,7.39 8.03,4.2 10.82,5.78 15.02,12.56 2.3,3.71 18.68,30.96 19.76,34.96z"/>
   <path class="fil4" d="M451.01 134.6c5.47,0.63 9.08,2.42 12.51,5.14 9.61,7.61 19.05,23.01 16.03,35.88 -3.73,15.92 -28.08,28.41 -43.03,26.73 -15.05,-1.69 -25.3,-11.28 -27.61,-24.77 -0.73,-4.22 -1.1,-12.33 -0.4,-16.44 2.79,-16.45 22.12,-28.86 42.5,-26.54z"/>
   <path class="fil4" d="M417.02 138.31c-3.17,0.98 -8.94,7 -10.71,9.5 -7.1,10.03 -7.39,20.81 -2.71,32.33 1.02,2.49 2.06,4.58 3.46,6.65l4.34 6.23c-2.88,0.88 -5.09,2.49 -8.88,3.35 -3.65,0.82 -7.86,0.58 -11.47,-0.1 -12.33,-2.33 -23.47,-9.1 -28.69,-20.99 -5.68,-12.91 -6.21,-27.52 2.85,-38.57 3.35,-4.09 10.68,-7.2 16.14,-8.64 6.25,-1.65 15.68,-3.46 21.51,-0.98 4.22,1.78 12.38,7.94 14.16,11.22z"/>
   <path class="fil5" d="M488.03 129.07c2.65,1.94 5.64,4.8 7.95,7.18 12.89,13.22 22.13,30.15 24.13,49.46 1.1,10.65 -0.64,15.71 -4.06,24.25l-10.85 -2.55c3.34,-0.88 6.78,-16.34 6.83,-21.07 0.09,-8.37 -1.83,-16.56 -4.32,-23.81 -3.55,-10.31 -12.52,-24.72 -20.41,-31.9 -0.14,-0.12 -0.89,-0.73 -0.97,-0.82 -1.19,-1.29 -0.81,-0.39 -0.28,-1.02 1.14,0.21 1.32,0.64 1.98,0.28z"/>
   <path class="fil4" d="M468.62 117.95l0.65 0.28c-0.31,0.41 -1.18,-0.15 0.7,0.66 4.15,1.8 3.6,1.01 9.17,4.2 3.06,1.76 6.51,4.01 8.89,5.98 -0.66,0.36 -0.84,-0.07 -1.98,-0.28 -1.34,-0.99 -6.46,-2.92 -8.32,-3.62 -8.99,-3.4 -20.52,-5.78 -30.44,-5.95 -7.38,-0.12 -14.82,0.77 -21.62,2.56 -4.04,1.06 -9.74,2.87 -13.56,4.59 -1.56,0.7 -2.93,1.81 -4.59,1.63l-4.43 -1.95c6.51,-4.52 20.59,-8.83 30.05,-10.09 11.05,-1.48 20.96,-0.87 31.62,1.53 1.05,0.24 2.82,1 3.86,0.46z"/>
   <path class="fil5" d="M485.23 231.46c0.53,-1.11 4.34,-4.08 5.34,-4.98 6.25,-5.62 9.29,-9.53 13.88,-16.54 2.28,0.3 8.55,1.5 10.17,2.57 -1.04,3.38 -7.13,10.49 -9.12,12.85 -1.71,2.02 -8.89,8.93 -11.45,10.19 -2.91,-1.39 -5.7,-2.64 -8.82,-4.09z"/>
   <path class="fil1" d="M418.46 170.03c2.12,1.43 4.52,1.65 5.25,-1.32 0.81,-3.27 -1.16,-4.92 -1.66,-6.85 2.47,-1.05 3.58,-2.06 7.01,-0.94 5.66,1.85 10.84,8.8 6.98,16.25 -4.98,9.63 -18.13,3.74 -17.58,-7.14z"/>
   <path class="fil5" d="M455 247.95c2.23,-1.2 5.11,-1.97 7.54,-3.1 2.87,-1.34 18.84,-9.46 19.46,-11.71 3.49,0.88 6.89,2.95 9.76,3.92 -0.75,1.18 0.15,-0.02 -0.61,0.75l-1.24 0.94c-0.78,0.54 -1.05,0.75 -1.83,1.29l-11.49 6.66c-4.25,2.17 -12.39,5.97 -17.07,6.87 -1.03,-1.22 -3.99,-4.3 -4.52,-5.62z"/>
   <path class="fil1" d="M368.54 152.49c0.09,-0.06 0.24,-0.23 0.3,-0.14 0.01,0 3.81,-0.55 4.25,-3.34 0.17,-1.06 -0.01,-2.63 -0.32,-3.66 -0.4,-1.37 -1.06,-1.6 -1.86,-2.28 5.15,-7.9 16.53,-3.79 14.72,9.99 -1.55,11.89 -14.09,8.9 -17.09,-0.57z"/>
   <path class="fil1" d="M485.35 213.44c3.3,1.34 4.51,6.18 2.93,10.06 -4.02,9.86 -18.26,2.8 -12.61,-5.29 1.57,-2.25 5.97,-6.28 9.68,-4.77z"/>
   <path class="fil6" d="M484.66 214.8c5.37,1.82 2.8,15.2 -5.66,11.37 -7.93,-3.59 1.38,-12.81 5.66,-11.37z"/>
   <path class="fil1" d="M471.65 227.15c4.51,2.44 1.97,8.97 -2.77,7.37 -4.9,-1.65 -1.18,-9.51 2.77,-7.37z"/>
   <path class="fil7" d="M469.01 219.56c0.82,6.43 -6.47,6.18 -7.44,3 -0.68,-2.27 0.55,-4.22 2.27,-4.67 2.88,-0.76 3.68,0.55 5.17,1.67z"/>
   <path class="fil6" d="M468.19 232.05c-0.29,-1.94 0.71,-2.8 1.65,-3.84 5.17,0.55 1.88,8.14 -1.65,3.84z"/>
   <path class="fil1" d="M83.29 387.77c0.57,0.3 1.55,-0.12 2.13,-0.25 5.89,-1.33 11.36,-1.67 17.47,-0.85 5.23,0.7 13.02,3.08 16.61,5.58l-2.45 1.07 -5.07 3.44c-0.68,0.55 -0.85,0.89 -1.67,1.32 -4.05,-1.87 -7.83,-2.94 -12.92,-2.53 -5.13,0.41 -10.39,2.38 -14.05,5.37 -2.01,1.63 -4.05,3.82 -5.44,6.12 -1.88,3.1 -3.72,7.63 -3.38,12.13 0.83,10.9 18.33,24.49 32.86,16 1.83,-1.07 4.67,-3.23 4.67,-3.23 5.04,2.28 7.74,3.96 14.63,1.88 2.33,-0.7 4.3,-1.58 6.31,-2.75l4.11 -2.62c1.44,-1.02 0.5,-0.71 1.56,-1.08 -0.19,7.42 -2.97,15.06 -7.09,20.8 -1.01,1.41 -3.2,4.26 -4.29,4.95l-1.92 -5.19c-0.66,-1.5 -1.85,-3.49 -2.3,-4.89l-0.14 0.79c0,0.12 0.11,0.67 0.14,0.81 0.41,2.16 1.14,6.53 2.22,8.2 0.54,0.83 1.24,1.57 1.82,2.43 0.57,0.83 0.85,1.94 1.2,2.84 1.6,4.18 3.24,4.98 4.63,6.95 0.07,0.11 0.16,0.23 0.23,0.37 0.24,0.46 -0.08,-0.4 0.19,0.44 -1.8,0.55 -2.19,0.81 -3.01,2.29 -0.88,1.58 -0.84,3.07 -1.32,4.05 -0.48,-1.43 -0.18,-6.23 -1.64,-8.74 -3.23,-5.52 -1.43,-3.28 -3.16,-7.25 -1.09,-2.49 -4.84,-6.67 -6.84,-8.79l-2.63 -2.69c0.59,1.49 7.63,11.09 7.94,12.26 -2.66,2.5 -10.4,5.52 -14.4,6.46 -2.97,0.71 -6.13,1.17 -9.36,1.13 -2.23,-0.03 -7.24,-0.66 -9,-1.42 0.17,-0.38 1.42,-1.8 1.61,-2 0.58,-0.6 1.27,-1.38 1.64,-2.11l-0.99 -0.7c-0.44,0.38 -0.85,0.91 -1.38,1.26 -0.29,0.73 -1.92,2.43 -2.5,3.1 -2.58,-0.5 -7.08,-2.59 -9.43,-3.8l-6.35 -3.67c-0.43,-0.3 -0.58,-0.42 -1.01,-0.72l-0.69 -0.52c-0.42,-0.43 0.08,0.24 -0.33,-0.41 1.58,-0.54 3.46,-1.68 5.39,-2.17l1.51 -0.53 -0.37 -1.3 -2.93 0.91c-1.72,0.8 -3.26,1.49 -4.87,2.25 -1.41,-0.69 -5.38,-4.51 -6.33,-5.63 -1.1,-1.3 -4.46,-5.23 -5.04,-7.1 0.9,-0.59 4.36,-1.26 5.62,-1.42l5.37 -1.05 -0.31 -1.38 -5.47 1.03 -6 1.41c-1.89,-4.72 -2.85,-7.51 -2.24,-13.4 1.1,-10.67 6.21,-20.03 13.33,-27.34 1.28,-1.31 2.93,-2.89 4.4,-3.96 1.31,-1.09 3.22,-2.34 4.91,-3.31 3.08,-1.76 2.78,-1.32 5.07,-2.32 1.04,-0.45 0.56,-0.14 0.39,-0.36 -2.69,0.24 -5.27,1.92 -7.53,3.12 -0.46,-1.98 -3.88,-7.68 -5.28,-9.76 -2.6,-3.9 -5.41,-7.14 -8.93,-9.98l-6.53 -5.03c-0.78,-0.59 -1.39,-0.95 -2.15,-1.51l-4.02 -2.93c-0.03,-0.02 -0.08,-0.06 -0.11,-0.08 -6.09,-4.37 -20.47,-13.65 -26.2,-16.22 -4.76,-2.14 -5.86,-0.41 -9.6,3.32 -2.96,2.96 -6.16,6.95 -8.33,10.57 -1.76,2.93 -2.37,4.74 -2.89,8.49 -0.3,2.14 -0.73,4.67 -0.78,6.93 -0.04,1.34 -0.39,3.86 -0.58,6.21l0 4.21c0.03,0.17 0.07,0.32 0.12,0.45l0.13 0.26c0.02,0.05 0.11,0.19 0.14,0.25 1.18,2.21 3.74,3.32 5.82,4.59 1.4,0.86 3.86,1.48 5.6,2.11 3.85,1.37 7.79,2.39 11.7,3.54 3.86,1.14 7.95,2.32 11.82,3.41l12.04 3.19c1.92,0.56 10.63,2.47 12.03,3.21 -0.18,0.77 -0.51,1.15 -0.9,1.8 -2.5,4.14 -4.45,8.79 -5.39,13.5 -0.04,0.22 -0.13,0.48 -0.18,0.76 -0.02,0.12 -0.08,0.64 -0.14,1.04 -0.66,4.2 -0.83,8.04 0.31,12.34 0.23,0.87 0.25,1.35 0.56,2.14 0.3,0.74 0.65,1.32 0.72,2.17 -5.2,3.49 -4.43,12.55 -9.6,16.43 -1.72,1.28 -3.12,1.16 -4.86,1.52 -1.02,0.21 -0.41,0.45 -0.39,1.53 2.27,0 5.12,-1.06 6.4,-2.09 2.3,-1.84 3.69,-5.14 4.82,-7.91 0.92,-2.27 1.54,-6.4 3.76,-7.81 0.6,-0.39 -0.09,-0.24 0.84,-0.32 0.21,0.9 1.67,3.1 2.24,3.94 0.83,1.24 1.61,2.44 2.63,3.53l4.53 4.73c0.55,0.56 1.17,0.86 1.59,1.49 -1.53,0.41 -2.32,3.85 -2.32,5.2 0,2.6 0.2,4.63 0.2,7.34 0,3.54 0.05,6.79 -2.61,8.77 -0.66,0.48 -1.62,1.27 -2.41,1.45 0.02,0.79 0.12,0.84 0.39,1.35 1.51,-0.13 3.78,-2.3 4.52,-3.39 4.16,-6.1 -1.07,-16.89 3.2,-19.75 0.85,0.2 5.03,3.41 6.25,4.16 2.94,1.8 6.15,3.45 9.39,4.68 0.87,0.33 1.94,0.61 2.68,0.99 -0.18,0.68 -3.13,4.28 -3.85,5.61 -1.91,3.51 -2.88,5.13 -0.4,8.67 3.71,5.27 7.33,5.69 6.42,9.5 -0.34,1.42 -1.28,2.65 -1.6,3.99 0.46,0.25 0.66,0.45 1.16,0.58l0 0c4.69,-8.86 0.73,-7.59 -3.99,-13.94 -3.4,-4.56 -2.5,-4.71 1.56,-10.86 0.42,-0.64 2,-2.84 2.43,-3.16 2.26,0.52 4.82,1.19 7.19,1.49 0.98,0.13 2.06,0.08 2.9,0.19 3.46,0.5 11.67,-1.59 14.93,-2.89 3.46,-1.39 6.57,-3.14 9.66,-5.19 0.36,-0.24 0.54,-0.36 0.91,-0.63 0.62,-0.46 0.24,-0.42 1.05,-0.49 0.3,1.25 1.07,2.07 1.85,6.06 0.19,0.96 0.32,1.25 0.55,2.15 0.41,1.67 2.52,6.98 2.62,8.18l4.02 -1.76c1.11,-0.41 3.49,-0.75 5.04,-0.75 -0.02,-1.12 -1.44,-4.21 -2,-4.93 -2.26,-2.94 -2.42,-3.74 -4.34,-6.86 -0.02,-0.03 -0.05,-0.08 -0.07,-0.11l-1.03 -1.48c-0.97,-1.41 -1.99,-2.68 -2.78,-4.17 3.02,-2.02 10.27,-11.92 10.99,-15.04l6.84 0.49c2.5,0.37 8.41,0.73 9.59,2.95 0.56,1.04 0.9,2.3 1.17,3.65 0.54,2.72 0.12,5.59 2.41,7.62 0.72,0.64 2.16,1.59 3.33,1.68 0.27,-0.51 0.37,-0.56 0.38,-1.35 -0.77,-0.18 -2.62,-1.18 -3.13,-1.68 -1.93,-1.93 -0.92,-8.31 -3.47,-11.38 -1.44,-1.72 -4.49,-2.15 -7.22,-2.62 -1.32,-0.22 -2.91,-0.18 -4.44,-0.38 -1.34,-0.17 -3.08,-0.33 -4.69,-0.33 0.1,-1.19 1.37,-3.81 1.77,-5.18 0.34,-1.18 1.1,-4.75 1.13,-6 3.25,0 9.61,-0.25 11.6,2.28 0.72,0.91 1.35,1.61 2.01,2.61 3.87,5.82 2.95,8.61 9.92,8.61l0 -1.55c-3.98,0 -4.47,-0.22 -5.92,-3.15 -0.96,-1.95 -2.28,-4.07 -3.5,-5.75 -0.57,-0.77 -1.44,-1.91 -2.18,-2.45l-1.39 -0.92c-3,-1.38 -6.69,-1.23 -10.35,-1.23 0,-2.97 0.49,-2.72 2.09,-4.85 1.86,-2.45 3.12,-5.06 3.62,-8.53 0.66,-4.65 -0.77,-11.04 -3.93,-14.63 -0.95,-1.07 -1.14,-1.38 -2.3,-2.33 -0.89,-0.72 -1.82,-1.39 -2.88,-1.93 -3.42,-1.75 -7.96,-2.25 -12.03,-2.25 -3.84,0 -2.17,0.56 -6.83,-2.04 -3.22,-1.79 -11.09,-3.72 -14.84,-4.24 -2.86,-0.41 -1.68,0.58 -1.87,-2.59 -0.05,-0.7 -0.1,-0.4 -0.03,-0.87 0.33,-2.14 0.04,-1.84 0.13,-2.92 0.35,-4.15 1.98,-8.54 1.41,-12.94 -0.47,-3.63 -2.62,-11.71 -3.68,-15.41 -0.21,-0.7 -0.35,-1.18 -0.5,-1.82l-1.71 -5.61c-1.76,-6.29 -4.99,-13.25 -8.51,-18.87l-0.31 -0.47c-0.44,-0.59 -0.79,-0.97 -1.63,-1.07l-0.88 0c-3.66,0.34 -11.81,4.23 -15.16,5.57 -2.71,1.09 -4.94,3 -6.52,5.44l-4.79 7.35c-2.54,3.93 -4.75,8.24 -6.49,12.6 -1.13,2.81 1.09,4.09 2.83,5.83l4.99 4.46c0.43,0.34 0.88,0.67 1.28,1.04l7.72 6.55c3.44,3 7.09,5.76 10.51,8.78 0.58,0.52 0.59,0.77 1.21,1.29l3.01 2.97c0.6,0.51 1.68,0.95 1.9,1.77l-5.23 1.54z"/>
   <path class="fil2" d="M73.65 393.76c0.3,0.35 0.51,-0.15 -0.15,0.56 -0.05,0.05 -0.46,0.39 -0.54,0.46 -4.36,3.97 -9.32,11.93 -11.28,17.63 -1.37,4.01 -2.44,8.53 -2.39,13.16 0.03,2.61 1.93,11.15 3.78,11.64l5.47 -1.03 0.31 1.38 -5.37 1.05c2.54,3.88 4.22,6.04 7.68,9.14 0.55,0.5 2.65,2.14 2.94,2.76l2.93 -0.91 0.37 1.3 -1.51 0.53c0.34,1.25 9.17,5.73 10.76,6.47 1.34,0.63 2.93,1.05 4.16,1.72 0.53,-0.35 0.94,-0.88 1.38,-1.26l0.99 0.7c-0.37,0.73 -1.06,1.51 -1.64,2.11 -0.19,0.2 -1.44,1.62 -1.61,2 1.76,0.76 6.77,1.39 9,1.42 3.23,0.04 6.39,-0.42 9.36,-1.13 4,-0.94 11.74,-3.96 14.4,-6.46 -0.31,-1.17 -7.35,-10.77 -7.94,-12.26l2.63 2.69c2,2.12 5.75,6.3 6.84,8.79 1.73,3.97 -0.07,1.73 3.16,7.25 1.46,2.51 1.16,7.31 1.64,8.74 0.48,-0.98 0.44,-2.47 1.32,-4.05 0.82,-1.48 1.21,-1.74 3.01,-2.29 -0.27,-0.84 0.05,0.02 -0.19,-0.44 -0.07,-0.14 -0.16,-0.26 -0.23,-0.37 -1.39,-1.97 -3.03,-2.77 -4.63,-6.95 -0.35,-0.9 -0.63,-2.01 -1.2,-2.84 -0.58,-0.86 -1.28,-1.6 -1.82,-2.43 -1.08,-1.67 -1.81,-6.04 -2.22,-8.2 -0.03,-0.14 -0.14,-0.69 -0.14,-0.81l0.14 -0.79c0.45,1.4 1.64,3.39 2.3,4.89l1.92 5.19c1.09,-0.69 3.28,-3.54 4.29,-4.95 4.12,-5.74 6.9,-13.38 7.09,-20.8 -1.06,0.37 -0.12,0.06 -1.56,1.08l-4.11 2.62c-2.01,1.17 -3.98,2.05 -6.31,2.75 -6.89,2.08 -9.59,0.4 -14.63,-1.88 0,0 -2.84,2.16 -4.67,3.23 -14.53,8.49 -32.03,-5.1 -32.86,-16 -0.34,-4.5 1.5,-9.03 3.38,-12.13 1.39,-2.3 3.43,-4.49 5.44,-6.12 3.66,-2.99 8.92,-4.96 14.05,-5.37 5.09,-0.41 8.87,0.66 12.92,2.53 0.82,-0.43 0.99,-0.77 1.67,-1.32l5.07 -3.44c-0.91,0.1 -1.67,-0.51 -2.53,-0.9 -2.12,-0.95 -5.26,-1.95 -7.5,-2.53 -3.75,-0.99 -7.87,-1.49 -11.94,-1.42 -5.49,0.1 -11.86,1.41 -16.83,3.29 -1.03,0.39 -3.86,1.45 -4.6,2z"/>
   <path class="fil3" d="M60.36 405.08c0.56,-0.56 1.01,-1.31 1.49,-1.94 0.56,-0.71 1.04,-1.23 1.56,-1.91 0.54,-0.69 1.09,-1.15 1.66,-1.81 0.61,-0.7 1.12,-1.24 1.79,-1.87 4.37,-4.09 4.53,-3.45 7.89,-6.12 -0.99,-3 -6.44,-10.09 -8.57,-12.75 -3.98,-4.95 -15.42,-11.96 -20.76,-15.31 -5.12,-3.22 -17.01,-10.5 -22.64,-13.23 -2.87,-1.4 -3.47,-2.32 -4.9,-1.18 -3.4,2.7 -11.87,11.1 -13.46,15.28 -1.2,3.15 -1.8,8.77 -1.95,12.54 -0.1,2.24 -0.13,4.81 0.18,7.04 0.18,1.3 0.51,1.39 1.48,1.94 0.85,0.48 1.6,0.79 2.5,1.15 3.32,1.34 7.51,2.34 11.06,3.42 12.37,3.77 25.06,8.51 37.29,12.83 1.57,0.55 3.85,1.6 5.38,1.92z"/>
   <path class="fil3" d="M58.28 354.98c0.58,0.93 2.73,2.95 3.74,3.94l9.9 9.57c0.72,0.71 1.42,1.22 2.16,1.9l11.83 11.5c1.33,1.33 2.59,2.57 3.96,3.98 1.72,-0.07 3.92,-0.63 5.79,-0.8 2.26,-0.2 4.32,-0.15 6.57,-0.15 0.16,-5.33 1.11,-12.91 0.43,-18.02 -0.25,-1.91 -1.59,-5.24 -2.19,-7.1 -2.3,-7.14 -4.69,-13.97 -6.9,-21.23 -1.05,-3.43 -3.28,-11.79 -5.05,-13.94 -2.72,-0.1 -8.93,3 -11.02,4.09 -4.44,2.32 -5.98,3.19 -8.3,6.94 -1.27,2.05 -10.33,17.11 -10.92,19.32z"/>
   <path class="fil4" d="M93.02 396.98c-3.03,0.34 -5.02,1.33 -6.92,2.83 -5.3,4.21 -10.52,12.72 -8.86,19.83 2.07,8.8 15.52,15.7 23.79,14.78 8.31,-0.94 13.98,-6.24 15.26,-13.69 0.4,-2.34 0.6,-6.82 0.22,-9.09 -1.55,-9.09 -12.23,-15.95 -23.49,-14.66z"/>
   <path class="fil4" d="M111.8 399.02c1.75,0.54 4.94,3.87 5.92,5.25 3.93,5.55 4.09,11.5 1.5,17.87 -0.56,1.38 -1.14,2.53 -1.91,3.68l-2.4 3.44c1.59,0.48 2.81,1.38 4.91,1.85 2.01,0.46 4.34,0.32 6.34,-0.06 6.81,-1.28 12.96,-5.02 15.85,-11.59 3.14,-7.14 3.43,-15.21 -1.57,-21.32 -1.85,-2.26 -5.91,-3.98 -8.92,-4.78 -3.46,-0.91 -8.67,-1.91 -11.89,-0.54 -2.33,0.99 -6.84,4.39 -7.83,6.2z"/>
   <path class="fil5" d="M72.56 393.92c-1.47,1.07 -3.12,2.65 -4.4,3.96 -7.12,7.31 -12.23,16.67 -13.33,27.34 -0.61,5.89 0.35,8.68 2.24,13.4l6 -1.41c-1.85,-0.49 -3.75,-9.03 -3.78,-11.64 -0.05,-4.63 1.02,-9.15 2.39,-13.16 1.96,-5.7 6.92,-13.66 11.28,-17.63 0.08,-0.07 0.49,-0.41 0.54,-0.46 0.66,-0.71 0.45,-0.21 0.15,-0.56 -0.63,0.12 -0.73,0.36 -1.09,0.16z"/>
   <path class="fil4" d="M83.29 387.77l-0.36 0.16c0.17,0.22 0.65,-0.09 -0.39,0.36 -2.29,1 -1.99,0.56 -5.07,2.32 -1.69,0.97 -3.6,2.22 -4.91,3.31 0.36,0.2 0.46,-0.04 1.09,-0.16 0.74,-0.55 3.57,-1.61 4.6,-2 4.97,-1.88 11.34,-3.19 16.83,-3.29 4.07,-0.07 8.19,0.43 11.94,1.42 2.24,0.58 5.38,1.58 7.5,2.53 0.86,0.39 1.62,1 2.53,0.9l2.45 -1.07c-3.59,-2.5 -11.38,-4.88 -16.61,-5.58 -6.11,-0.82 -11.58,-0.48 -17.47,0.85 -0.58,0.13 -1.56,0.55 -2.13,0.25z"/>
   <path class="fil5" d="M74.1 450.51c-0.29,-0.62 -2.39,-2.26 -2.94,-2.76 -3.46,-3.1 -5.14,-5.26 -7.68,-9.14 -1.26,0.16 -4.72,0.83 -5.62,1.42 0.58,1.87 3.94,5.8 5.04,7.1 0.95,1.12 4.92,4.94 6.33,5.63 1.61,-0.76 3.15,-1.45 4.87,-2.25z"/>
   <path class="fil1" d="M111.01 416.56c-1.18,0.78 -2.5,0.9 -2.91,-0.74 -0.44,-1.8 0.65,-2.71 0.92,-3.78 -1.36,-0.58 -1.98,-1.14 -3.87,-0.52 -3.13,1.02 -5.99,4.86 -3.86,8.98 2.75,5.32 10.02,2.07 9.72,-3.94z"/>
   <path class="fil5" d="M90.81 459.62c-1.23,-0.67 -2.82,-1.09 -4.16,-1.72 -1.59,-0.74 -10.42,-5.22 -10.76,-6.47 -1.93,0.49 -3.81,1.63 -5.39,2.17 0.41,0.65 -0.09,-0.02 0.33,0.41l0.69 0.52c0.43,0.3 0.58,0.42 1.01,0.72l6.35 3.67c2.35,1.21 6.85,3.3 9.43,3.8 0.58,-0.67 2.21,-2.37 2.5,-3.1z"/>
   <path class="fil1" d="M138.6 406.86c-0.05,-0.03 -0.14,-0.13 -0.17,-0.08 0,0 -2.1,-0.3 -2.35,-1.85 -0.09,-0.58 0.01,-1.45 0.18,-2.02 0.22,-0.75 0.58,-0.88 1.03,-1.26 -2.85,-4.36 -9.14,-2.09 -8.14,5.52 0.86,6.57 7.79,4.93 9.45,-0.31z"/>
   <path class="fil1" d="M74.04 440.54c-1.82,0.75 -2.49,3.42 -1.62,5.57 2.22,5.45 10.09,1.54 6.97,-2.93 -0.87,-1.24 -3.3,-3.47 -5.35,-2.64z"/>
   <path class="fil6" d="M74.42 441.3c-2.97,1 -1.55,8.39 3.13,6.28 4.38,-1.98 -0.76,-7.08 -3.13,-6.28z"/>
   <path class="fil1" d="M81.61 448.12c-2.49,1.35 -1.09,4.96 1.53,4.08 2.71,-0.92 0.66,-5.26 -1.53,-4.08z"/>
   <path class="fil7" d="M83.07 443.93c-0.45,3.55 3.58,3.41 4.11,1.65 0.38,-1.25 -0.3,-2.33 -1.25,-2.58 -1.59,-0.41 -2.04,0.31 -2.86,0.93z"/>
   <path class="fil6" d="M83.52 450.83c0.16,-1.07 -0.39,-1.55 -0.91,-2.12 -2.86,0.3 -1.04,4.5 0.91,2.12z"/>
  </g>
 </g>
</svg>
