<?xml version="1.0" encoding="UTF-8"?>
<!DOCTYPE svg PUBLIC "-//W3C//DTD SVG 1.1//EN" "http://www.w3.org/Graphics/SVG/1.1/DTD/svg11.dtd">
<!-- Creator: CorelDRAW 2020 (64 Bit) -->
<svg xmlns="http://www.w3.org/2000/svg" xml:space="preserve" width="69px" height="66px" version="1.1" style="shape-rendering:geometricPrecision; text-rendering:geometricPrecision; image-rendering:optimizeQuality; fill-rule:evenodd; clip-rule:evenodd"
viewBox="0 0 67.35 64.29"
 xmlns:xlink="http://www.w3.org/1999/xlink"
 xmlns:xodm="http://www.corel.com/coreldraw/odm/2003">
 <defs>
  <style type="text/css">
   <![CDATA[
    .fil0 {fill:#1D1D1C}
    .fil2 {fill:#33B1DE}
    .fil1 {fill:#CBEBF7}
   ]]>
  </style>
 </defs>
 <g id="Camada_x0020_1">
  <metadata id="CorelCorpID_0Corel-Layer"/>
  <g id="_3030283967376">
   <g>
    <path class="fil0" d="M39.2 25.85c0,2.98 -1.06,4.24 -2.18,6.26 0.27,0.38 2.95,2.51 3.57,3.13l9.07 9.51c0.27,0.31 0.52,0.66 0.82,0.94 1.05,-0.24 0.27,-0.75 1.47,0.11 2.23,1.59 3.09,2.5 4.98,4.01 1.49,1.19 6.86,6.65 7.99,7.77 0.92,0.92 2.74,2.58 2.38,4.19 -0.16,0.76 -0.59,0.88 -0.95,1.36 -0.77,1.03 -1.5,1.44 -3.17,0.96 -1.98,-0.57 -3.62,-2.64 -4.87,-4.15l-2.01 -2.53c-1.68,-2.19 -5.26,-6.03 -7.4,-8.36 -0.55,-0.6 -0.69,-0.72 -0.26,-1.67 -0.88,-0.96 -6.14,-5.84 -6.85,-6.47l-1.7 -1.63c-0.31,-0.28 -0.53,-0.5 -0.83,-0.79 -0.31,-0.29 -0.54,-0.6 -0.84,-0.88 -1,-0.89 -2.92,-3.05 -3.29,-3.35 -1.08,0.75 -1.12,1.05 -2.72,1.8 -6.13,2.87 -12.99,-2.4 -17.23,-5.91l-6.99 -6.56c-3.03,-3.09 -2.68,-1.93 -1.8,-3.65 1.44,-2.8 2.51,-3.82 4.16,-5.94 0.67,-0.86 5.18,-5.31 5.89,-5.93 0.93,-0.81 3.02,-2.62 4.15,-2.64 0.43,-0.01 2.74,1.64 3.22,1.95 2.78,1.78 5.29,3.65 7.78,5.75l2.58 2.46c0.31,0.29 0.5,0.61 0.8,0.93 1.81,1.92 4.24,5.49 4.23,9.33z"/>
    <path class="fil1" d="M18.2 31.21c0.6,-0.73 1.22,-1.26 1.88,-1.91 0.44,0.19 2.13,1.81 2.58,2.23 -0.18,0.17 -0.43,0.38 -0.36,0.59 0.3,0.12 0.37,-0.12 0.71,-0.27 0.49,0.34 0.74,0.77 1.18,0.92 0.02,-0.35 -0.57,-0.9 -0.87,-1.13 0.18,-0.35 2.31,-2.07 2.72,-2.31 0.55,0.48 2.76,2.52 3.09,2.63 0,-0.4 -0.41,-0.51 -0.61,-0.86 0.26,-0.34 0.78,-0.64 1.14,-0.93 0.37,-0.3 0.85,-0.75 1.23,-0.9 0.43,0.29 0.85,0.91 1.3,1 -0.05,-0.48 -0.74,-0.93 -1.05,-1.21 0.52,-0.67 3.54,-2.58 3.47,-3.4 -0.02,-0.26 0.05,-0.06 -0.09,-0.24 -0.24,0.09 0.2,-0.11 -0.52,0.5l-2.02 -1.97c0.28,-0.4 0.65,-0.63 0.99,-0.97 0.34,-0.34 0.65,-0.67 0.92,-0.99 0.91,0.43 1.33,1.44 2.19,1.8 -0.42,-0.84 -1.37,-1.42 -1.74,-2.17 0.21,-0.17 0.73,-0.58 0.85,-0.91 -0.47,-0.05 -0.6,0.49 -1.2,0.72 -0.17,-0.27 -0.36,-0.47 -0.58,-0.73 -0.6,-0.73 -1.42,-1.36 -2.04,-2.12 0.22,-0.48 0.36,-0.15 0.3,-0.67 -0.47,-0.03 -0.29,0.08 -0.68,0.27 -0.68,-0.64 -2.79,-2.51 -3.31,-3.24 0.24,-0.27 0.86,-0.69 0.76,-1.17 -0.43,0.07 -0.76,0.62 -1.09,0.86 -0.31,-0.13 -0.47,-0.39 -0.72,-0.59l-4.36 -3.72c-0.29,-0.24 -0.42,-0.51 -0.85,-0.33 -0.05,0.6 0.8,1.02 1.2,1.4l3.38 3.18c0.29,0.33 0.42,0.39 0.67,0.68 -0.15,0.35 -1.68,1.87 -2.05,2.07l-3.74 -2.88c0.14,-0.24 0.68,-0.89 0.85,-1.07 0.37,-0.38 0.72,-0.56 0.86,-1.05 -0.65,0.16 -1.46,1.41 -2.11,1.85l-2.74 -1.83c-0.39,-0.25 -0.54,-0.5 -1,-0.33 -0.02,0.48 0.77,0.93 1.46,1.48 0.51,0.41 1.25,0.88 1.64,1.35 -0.16,0.35 -1.36,1.68 -1.73,1.84 -0.44,-0.58 -0.66,-0.63 -1.13,-1.07 -0.38,-0.36 -0.69,-1.01 -1.33,-0.95 -0.1,0.58 0.68,1.07 0.97,1.32 0.42,0.37 0.92,0.69 1.18,1.18 -0.26,0.44 -0.51,0.69 -0.81,1.06 -0.3,0.36 -0.55,0.67 -0.85,1 -0.81,-0.32 -2.22,-1.83 -3.05,-2.44 -0.38,-0.28 -0.61,-0.68 -1.07,-0.51 -0.06,0.51 0.42,0.75 0.75,1.03l2.42 2.13c0.2,0.17 0.24,0.28 0.41,0.46l-0.32 0.61c0.65,-0.08 0.14,-0.09 0.63,-0.36l1.59 1.42c0.47,0.47 1.36,0.94 1.6,1.56 -0.33,0.49 -1.6,2.05 -2.08,2.23 -0.01,-0.01 -5.53,-5.19 -4.96,-3.5 0.07,0.23 4.26,3.99 4.49,4.2 -0.21,0.52 -0.8,0.83 -0.83,1.44 0.67,-0.04 0.79,-0.71 1.33,-0.97l2.49 2.26 -0.84 1.05c-0.32,0.39 -0.56,0.73 -0.85,1.15 -0.47,-0.23 -2.5,-1.96 -2.89,-2.34l-2.72 -2.52c-0.42,-0.38 -4.98,-4.61 -5.4,-5.22 0.31,-0.57 1.02,-1.61 1.41,-2.13 0.54,-0.75 0.93,-1.36 1.51,-2.13 1.14,-1.54 2.27,-3.02 3.66,-4.32l1.36 -1.36c0.66,-0.55 1.23,-1.16 1.92,-1.72 0.68,-0.54 1.28,-1.02 1.96,-1.58 0.36,-0.3 0.59,-0.6 0.92,-0.89 0.36,-0.32 0.59,-0.58 0.9,-0.91 0.6,0.28 1.96,1.45 2.59,1.94 2.13,1.66 4.49,3.12 6.57,4.85 0.18,0.16 0.4,0.36 0.6,0.51 1.97,1.46 3.69,3.18 5.2,5.11 3.71,4.74 3.9,9.96 -0.11,14.55 -0.42,0.48 -0.66,0.75 -1.15,1.17 -4.22,3.56 -9.2,1.75 -13.32,-0.83 -0.6,-0.38 -2.35,-1.53 -2.66,-1.95z"/>
    <path class="fil2" d="M49.27 48.3c0.15,-0.78 1.49,-1.99 2.12,-2.33 0.38,0.23 0.64,0.6 0.98,0.93 1.49,1.46 0.8,0.97 1.16,1.36l4.04 3.44c0.74,0.58 1.36,1.25 2.11,1.91 0.33,0.29 0.7,0.6 1.06,0.88l3.13 2.92c0.66,0.78 2.22,2.52 2.38,3.72 0.13,0.92 -2.24,2.59 -3.67,1.91 -0.78,-0.36 -1.82,-1.78 -2.47,-2.48l-2.31 -2.74c-0.3,-0.33 -0.6,-0.73 -0.91,-1.1 -0.19,-0.21 -0.26,-0.24 -0.44,-0.47l-2.33 -2.72c-1.13,-1.12 -3.77,-4.27 -4.85,-5.23z"/>
    <path class="fil1" d="M38.28 34.13l-0.26 0.41c0.34,0.5 0.71,0.71 1.01,1.14 0.32,-0.01 0.34,-0.05 0.51,-0.21l1.89 2.06c1.17,1.04 2.16,2.2 3.24,3.33 0.72,0.75 5.15,4.94 5.32,5.31 -0.23,0.16 -0.61,0.51 -0.82,0.61l-8.39 -8.2c-0.3,-0.27 -0.51,-0.52 -0.83,-0.78 -0.35,-0.28 -0.55,-0.57 -0.89,-0.83 -0.2,-0.17 -0.27,-0.18 -0.45,-0.36 -0.78,-0.79 -2.85,-2.25 -3.17,-2.68l1.3 -1.43c0.52,0.39 1.05,1.17 1.54,1.63z"/>
    <path class="fil1" d="M31.2 23.9c-0.17,0.47 -2.35,2.22 -2.74,2.51 -0.41,-0.3 -2.49,-2.22 -2.71,-2.68l2.41 -2.23c0.63,0.32 2.19,1.88 3.04,2.4z"/>
    <path class="fil1" d="M23.89 18.07l-1.96 2.08c-0.37,-0.21 -3.23,-2.92 -3.36,-3.19 0.25,-0.4 0.46,-0.53 0.79,-0.91 0.33,-0.39 0.36,-0.52 0.82,-0.9 0.18,0.07 0.07,0.02 0.26,0.14l3.45 2.78z"/>
    <path class="fil1" d="M30.41 18.83c-0.75,0.37 -1.4,1.38 -2.17,1.68 -0.43,-0.51 -2.63,-2.36 -3.1,-2.73 0.08,-0.23 1.62,-1.99 2.05,-2.17 0.43,0.61 0.9,0.9 1.57,1.56 0.42,0.42 1.44,1.09 1.65,1.66z"/>
    <path class="fil1" d="M27.63 21.12c-0.77,0.69 -1.64,1.32 -2.39,2.11 -0.39,-0.17 -2.43,-2.15 -2.73,-2.53 0.22,-0.36 0.63,-0.75 0.92,-1.1 0.25,-0.32 0.73,-0.86 0.98,-1.11 0.38,0.2 2.99,2.3 3.22,2.63z"/>
    <path class="fil1" d="M25.6 28.99l-2.59 2.23c-0.37,-0.29 -0.74,-0.75 -1.18,-1.17 -0.36,-0.34 -0.85,-0.87 -1.16,-1.27 0.15,-0.29 1.92,-2.09 2.24,-2.27 0.31,0.18 2.57,2.19 2.69,2.48z"/>
    <path class="fil1" d="M21.43 20.6l-1.62 1.83c-0.38,-0.17 -0.62,-0.42 -0.89,-0.67 -0.35,-0.32 -0.49,-0.48 -0.86,-0.76l-1.63 -1.51 1.73 -1.99c0.71,0.71 2.85,2.43 3.27,3.1z"/>
    <path class="fil1" d="M33.71 21.7c-0.13,0.26 -1.93,1.83 -2.03,1.9l-2.87 -2.7c0.35,-0.37 1.61,-1.67 1.97,-1.84l2.93 2.64z"/>
    <path class="fil1" d="M33.71 26.04c-0.16,0.38 -2.32,2.32 -2.93,2.64 -0.41,-0.25 -1.62,-1.44 -1.93,-1.94 0.52,-0.34 0.88,-0.8 1.38,-1.24 0.46,-0.4 0.94,-0.8 1.35,-1.22l2.13 1.76z"/>
    <path class="fil1" d="M22.22 25.85c-0.15,0.34 -1.76,1.99 -2.14,2.31 -0.31,-0.2 -2.19,-2.01 -2.41,-2.33l2.1 -2.16 1.84 1.56c0.29,0.33 0.36,0.37 0.61,0.62z"/>
    <path class="fil1" d="M28.11 26.74c-0.26,0.26 -0.66,0.65 -1,0.9 -0.46,0.35 -0.53,0.62 -1.07,0.9 -0.53,-0.34 -2.01,-1.97 -2.58,-2.57 0.23,-0.34 1.5,-1.51 1.86,-1.8l1.43 1.27c0.47,0.51 1.09,0.85 1.36,1.3z"/>
    <path class="fil1" d="M24.69 23.63c-0.33,0.46 -0.58,0.51 -0.92,0.86 -0.35,0.35 -0.57,0.66 -0.96,0.83 -0.44,-0.4 -2.18,-1.9 -2.41,-2.3 0.43,-0.66 1.14,-1.13 1.57,-1.84 0.56,0.21 0.96,0.79 1.4,1.18 0.46,0.4 0.96,0.77 1.32,1.27z"/>
    <path class="fil1" d="M30.48 28.99c-0.36,0.21 -0.75,0.58 -1.13,0.88 -0.38,0.3 -0.74,0.63 -1.09,0.91 -0.25,-0.12 -1.67,-1.62 -1.8,-1.9 0.57,-0.36 1.56,-1.54 2.1,-1.74 0.31,0.2 1.79,1.56 1.92,1.85z"/>
   </g>
   <g>
    <path class="fil0" d="M44.97 27.47c0,4.01 -1.43,5.71 -2.93,8.43 -0.85,0.96 -1.7,1.92 -2.55,2.88 -1.44,1.01 -1.5,1.42 -3.65,2.43 -8.25,3.86 -17.47,-3.23 -23.19,-7.96l-9.39 -8.82c-4.08,-4.15 -3.61,-2.6 -2.43,-4.91 1.95,-3.77 3.38,-5.13 5.6,-7.99 0.9,-1.16 6.96,-7.15 7.92,-7.98 1.25,-1.09 4.07,-3.52 5.58,-3.55 0.59,-0.01 3.68,2.2 4.33,2.62 3.74,2.39 7.12,4.91 10.47,7.74l3.48 3.31c0.4,0.39 0.67,0.82 1.07,1.24 2.44,2.59 5.7,7.4 5.69,12.56z"/>
    <path class="fil1" d="M16.72 34.67c0.8,-0.97 1.64,-1.69 2.53,-2.56 0.59,0.25 2.86,2.43 3.47,3 -0.24,0.23 -0.58,0.51 -0.48,0.79 0.4,0.17 0.49,-0.16 0.95,-0.35 0.66,0.45 1,1.02 1.58,1.23 0.04,-0.47 -0.76,-1.21 -1.17,-1.52 0.25,-0.48 3.12,-2.79 3.66,-3.11 0.75,0.65 3.72,3.4 4.17,3.54 -0.01,-0.54 -0.56,-0.68 -0.83,-1.15 0.35,-0.46 1.05,-0.86 1.53,-1.25 0.5,-0.41 1.14,-1.02 1.66,-1.22 0.57,0.39 1.15,1.22 1.74,1.34 -0.06,-0.64 -0.99,-1.24 -1.4,-1.63 0.69,-0.89 4.76,-3.46 4.67,-4.57 -0.03,-0.35 0.06,-0.07 -0.12,-0.31 -0.34,0.12 0.26,-0.16 -0.71,0.66l-2.71 -2.65c0.37,-0.53 0.87,-0.84 1.33,-1.3 0.45,-0.45 0.87,-0.9 1.23,-1.33 1.23,0.58 1.79,1.93 2.96,2.42 -0.57,-1.13 -1.85,-1.91 -2.35,-2.93 0.28,-0.22 0.98,-0.77 1.15,-1.22 -0.64,-0.06 -0.81,0.66 -1.61,0.97 -0.24,-0.37 -0.49,-0.63 -0.79,-0.98 -0.81,-0.97 -1.92,-1.83 -2.74,-2.85 0.29,-0.65 0.48,-0.2 0.4,-0.91 -0.63,-0.03 -0.39,0.11 -0.92,0.37 -0.9,-0.85 -3.75,-3.38 -4.45,-4.35 0.32,-0.37 1.16,-0.93 1.02,-1.58 -0.58,0.1 -1.02,0.84 -1.46,1.16 -0.42,-0.18 -0.64,-0.53 -0.96,-0.8l-5.87 -5c-0.4,-0.32 -0.56,-0.69 -1.15,-0.44 -0.07,0.8 1.08,1.37 1.61,1.88l4.55 4.28c0.39,0.44 0.57,0.52 0.91,0.9 -0.21,0.48 -2.27,2.53 -2.76,2.79l-5.04 -3.87c0.19,-0.32 0.91,-1.2 1.15,-1.44 0.49,-0.5 0.96,-0.76 1.16,-1.42 -0.88,0.22 -1.97,1.91 -2.84,2.5l-3.69 -2.47c-0.53,-0.33 -0.72,-0.67 -1.34,-0.44 -0.03,0.65 1.03,1.26 1.95,1.99 0.69,0.55 1.69,1.19 2.21,1.82 -0.2,0.47 -1.82,2.25 -2.32,2.47 -0.59,-0.77 -0.89,-0.84 -1.52,-1.43 -0.51,-0.49 -0.94,-1.36 -1.79,-1.28 -0.14,0.78 0.91,1.43 1.3,1.77 0.56,0.5 1.24,0.93 1.58,1.6 -0.34,0.58 -0.68,0.92 -1.08,1.41 -0.41,0.49 -0.74,0.91 -1.15,1.35 -1.08,-0.42 -2.98,-2.46 -4.09,-3.28 -0.52,-0.38 -0.82,-0.91 -1.44,-0.68 -0.09,0.68 0.56,1 1,1.38l3.26 2.86c0.27,0.24 0.33,0.38 0.55,0.62l-0.43 0.82c0.88,-0.11 0.19,-0.11 0.85,-0.48l2.14 1.9c0.64,0.64 1.83,1.27 2.15,2.11 -0.45,0.65 -2.16,2.75 -2.8,3 -0.02,-0.01 -7.44,-6.99 -6.68,-4.71 0.11,0.31 5.74,5.36 6.05,5.65 -0.28,0.7 -1.08,1.11 -1.12,1.93 0.9,-0.04 1.07,-0.95 1.79,-1.3l3.36 3.04 -1.14 1.41c-0.43,0.53 -0.75,0.98 -1.14,1.54 -0.63,-0.3 -3.37,-2.62 -3.88,-3.13l-3.67 -3.4c-0.56,-0.5 -6.69,-6.2 -7.27,-7.02 0.43,-0.77 1.38,-2.16 1.9,-2.87 0.73,-1 1.26,-1.83 2.03,-2.86 1.54,-2.07 3.06,-4.06 4.93,-5.81l1.83 -1.83c0.89,-0.73 1.65,-1.56 2.58,-2.31 0.91,-0.74 1.72,-1.38 2.63,-2.13 0.5,-0.41 0.79,-0.81 1.24,-1.2 0.48,-0.43 0.79,-0.78 1.22,-1.22 0.8,0.38 2.63,1.94 3.49,2.61 2.86,2.24 6.03,4.19 8.82,6.53 0.26,0.21 0.54,0.48 0.82,0.68 2.64,1.97 4.96,4.28 6.99,6.87 4.99,6.38 5.25,13.4 -0.14,19.58 -0.57,0.64 -0.89,1.01 -1.56,1.57 -5.67,4.78 -12.36,2.36 -17.91,-1.12 -0.81,-0.51 -3.17,-2.06 -3.58,-2.63z"/>
    <path class="fil1" d="M34.21 24.84c-0.24,0.63 -3.16,3 -3.69,3.39 -0.55,-0.42 -3.34,-3 -3.65,-3.61l3.25 -3c0.85,0.43 2.94,2.53 4.09,3.22z"/>
    <path class="fil1" d="M24.38 17.01l-2.65 2.79c-0.48,-0.28 -4.34,-3.93 -4.52,-4.29 0.34,-0.54 0.63,-0.72 1.07,-1.23 0.45,-0.51 0.48,-0.69 1.1,-1.21 0.25,0.1 0.1,0.03 0.35,0.19l4.65 3.75z"/>
    <path class="fil1" d="M33.14 18.02c-1.01,0.5 -1.88,1.87 -2.92,2.26 -0.58,-0.68 -3.53,-3.17 -4.17,-3.66 0.11,-0.32 2.18,-2.68 2.76,-2.93 0.59,0.83 1.21,1.21 2.11,2.1 0.57,0.57 1.94,1.47 2.22,2.23z"/>
    <path class="fil1" d="M29.41 21.1c-1.04,0.94 -2.21,1.79 -3.22,2.85 -0.52,-0.23 -3.27,-2.9 -3.68,-3.41 0.3,-0.48 0.86,-1.01 1.24,-1.48 0.35,-0.42 0.99,-1.16 1.32,-1.48 0.51,0.25 4.03,3.09 4.34,3.52z"/>
    <path class="fil1" d="M26.68 31.7l-3.49 2.99c-0.49,-0.38 -1,-1.01 -1.58,-1.56 -0.5,-0.47 -1.15,-1.18 -1.57,-1.72 0.21,-0.39 2.59,-2.82 3.01,-3.05 0.42,0.24 3.47,2.94 3.63,3.34z"/>
    <path class="fil1" d="M21.06 20.4l-2.18 2.47c-0.51,-0.23 -0.82,-0.57 -1.19,-0.9 -0.48,-0.43 -0.66,-0.65 -1.16,-1.03l-2.19 -2.03 2.32 -2.67c0.96,0.96 3.84,3.27 4.4,4.16z"/>
    <path class="fil1" d="M37.58 21.88c-0.17,0.35 -2.59,2.47 -2.72,2.56l-3.87 -3.63c0.48,-0.5 2.17,-2.25 2.66,-2.47l3.93 3.54z"/>
    <path class="fil1" d="M37.59 27.73c-0.22,0.51 -3.13,3.11 -3.94,3.54 -0.56,-0.33 -2.19,-1.93 -2.6,-2.61 0.69,-0.44 1.18,-1.08 1.85,-1.66 0.63,-0.54 1.27,-1.08 1.81,-1.64l2.88 2.37z"/>
    <path class="fil1" d="M22.13 27.47c-0.21,0.46 -2.37,2.67 -2.88,3.1 -0.42,-0.26 -2.95,-2.7 -3.24,-3.13l2.83 -2.9 2.46 2.1c0.4,0.44 0.49,0.49 0.83,0.83z"/>
    <path class="fil1" d="M30.05 28.66c-0.35,0.36 -0.89,0.87 -1.34,1.21 -0.62,0.47 -0.71,0.84 -1.45,1.21 -0.71,-0.45 -2.69,-2.65 -3.47,-3.45 0.32,-0.46 2.02,-2.04 2.51,-2.43l1.92 1.72c0.63,0.68 1.47,1.14 1.83,1.74z"/>
    <path class="fil1" d="M25.44 24.48c-0.44,0.63 -0.77,0.69 -1.23,1.16 -0.46,0.47 -0.76,0.88 -1.3,1.12 -0.59,-0.54 -2.92,-2.56 -3.24,-3.09 0.58,-0.9 1.54,-1.53 2.12,-2.49 0.76,0.29 1.29,1.06 1.88,1.59 0.62,0.55 1.3,1.04 1.77,1.71z"/>
    <path class="fil1" d="M33.24 31.69c-0.49,0.28 -1.01,0.78 -1.52,1.19 -0.52,0.4 -1,0.84 -1.47,1.22 -0.33,-0.16 -2.24,-2.18 -2.42,-2.55 0.76,-0.48 2.1,-2.07 2.83,-2.35 0.41,0.28 2.4,2.11 2.58,2.49z"/>
   </g>
  </g>
 </g>
</svg>
