<?xml version="1.0" encoding="UTF-8"?>
<!DOCTYPE svg PUBLIC "-//W3C//DTD SVG 1.1//EN" "http://www.w3.org/Graphics/SVG/1.1/DTD/svg11.dtd">
<!-- Creator: CorelDRAW 2020 (64 Bit) -->
<svg xmlns="http://www.w3.org/2000/svg" xml:space="preserve" width="71px" height="73px" version="1.1" style="shape-rendering:geometricPrecision; text-rendering:geometricPrecision; image-rendering:optimizeQuality; fill-rule:evenodd; clip-rule:evenodd"
viewBox="0 0 49.36 51.02"
 xmlns:xlink="http://www.w3.org/1999/xlink"
 xmlns:xodm="http://www.corel.com/coreldraw/odm/2003">
 <defs>
  <style type="text/css">
   <![CDATA[
    .fil0 {fill:#020202}
    .fil4 {fill:#295F9B}
    .fil6 {fill:#2B2B2B}
    .fil1 {fill:#5A7996}
    .fil5 {fill:#5B9761}
    .fil3 {fill:#DADEE8}
    .fil2 {fill:#FEF0F0}
   ]]>
  </style>
 </defs>
 <g id="Camada_x0020_1">
  <metadata id="CorelCorpID_0Corel-Layer"/>
  <g id="_2457269685840">
   <path class="fil0" d="M24.76 19.38c0.17,0.08 0.46,-0.04 0.63,-0.08 1.75,-0.39 3.38,-0.49 5.19,-0.25 1.56,0.21 3.87,0.91 4.94,1.66l-0.73 0.32 -1.51 1.02c-0.2,0.16 -0.25,0.26 -0.49,0.39 -1.2,-0.56 -2.33,-0.87 -3.84,-0.75 -1.52,0.12 -3.09,0.71 -4.18,1.59 -0.6,0.49 -1.2,1.14 -1.62,1.82 -0.55,0.93 -1.1,2.27 -1,3.61 0.25,3.24 5.45,7.28 9.77,4.75 0.54,-0.31 1.39,-0.95 1.39,-0.95 1.5,0.67 2.3,1.17 4.35,0.56 0.69,-0.21 1.27,-0.48 1.87,-0.82l1.22 -0.78c0.43,-0.3 0.15,-0.21 0.47,-0.32 -0.06,2.2 -0.89,4.47 -2.11,6.18 -0.3,0.42 -0.95,1.27 -1.28,1.47l-0.57 -1.54c-0.19,-0.45 -0.55,-1.04 -0.68,-1.46l-0.04 0.24c0,0.03 0.03,0.2 0.04,0.24 0.12,0.64 0.34,1.94 0.66,2.44 0.16,0.25 0.37,0.46 0.54,0.72 0.17,0.25 0.25,0.58 0.36,0.85 0.47,1.24 0.96,1.48 1.37,2.06 0.03,0.03 0.05,0.07 0.07,0.11 0.07,0.14 -0.02,-0.12 0.06,0.13 -0.54,0.17 -0.65,0.24 -0.9,0.68 -0.26,0.47 -0.25,0.91 -0.39,1.21 -0.14,-0.43 -0.05,-1.86 -0.49,-2.6 -0.95,-1.64 -0.42,-0.98 -0.94,-2.16 -0.32,-0.74 -1.43,-1.98 -2.03,-2.61l-0.78 -0.8c0.18,0.44 2.27,3.3 2.36,3.65 -0.79,0.74 -3.09,1.63 -4.28,1.92 -0.88,0.21 -1.82,0.34 -2.78,0.33 -0.67,-0.01 -2.16,-0.19 -2.68,-0.42 0.05,-0.11 0.42,-0.54 0.48,-0.59 0.17,-0.18 0.38,-0.42 0.49,-0.63l-0.3 -0.21c-0.13,0.11 -0.25,0.27 -0.41,0.37 -0.08,0.22 -0.57,0.73 -0.74,0.93 -0.77,-0.15 -2.1,-0.78 -2.8,-1.13l-1.89 -1.1c-0.13,-0.09 -0.17,-0.12 -0.3,-0.21l-0.21 -0.15c-0.12,-0.13 0.03,0.07 -0.09,-0.13 0.47,-0.16 1.03,-0.5 1.6,-0.64l0.45 -0.16 -0.11 -0.38 -0.87 0.26c-0.52,0.24 -0.97,0.45 -1.45,0.68 -0.42,-0.21 -1.6,-1.35 -1.88,-1.68 -0.33,-0.39 -1.33,-1.55 -1.5,-2.11 0.27,-0.18 1.3,-0.37 1.67,-0.42l1.6 -0.31 -0.1 -0.41 -1.62 0.3 -1.79 0.42c-0.56,-1.4 -0.84,-2.23 -0.66,-3.98 0.33,-3.17 1.84,-5.96 3.96,-8.13 0.38,-0.39 0.87,-0.86 1.31,-1.18 0.39,-0.32 0.96,-0.69 1.46,-0.98 0.91,-0.52 0.82,-0.39 1.5,-0.69 0.31,-0.13 0.17,-0.04 0.12,-0.11 -0.8,0.08 -1.57,0.58 -2.24,0.93 -0.13,-0.59 -1.15,-2.28 -1.57,-2.9 -0.77,-1.16 -1.6,-2.12 -2.65,-2.96l-1.94 -1.5c-0.23,-0.18 -0.42,-0.28 -0.64,-0.45l-1.2 -0.87c-0.01,-0.01 -0.02,-0.02 -0.03,-0.03 -1.81,-1.29 -6.08,-4.05 -7.79,-4.82 -1.41,-0.63 -1.74,-0.12 -2.85,0.99 -0.88,0.88 -1.83,2.07 -2.48,3.14 -0.52,0.87 -0.7,1.41 -0.86,2.52 -0.08,0.64 -0.21,1.39 -0.23,2.06 -0.01,0.4 -0.11,1.15 -0.17,1.85l0 1.25c0.01,0.05 0.02,0.1 0.04,0.14l0.03 0.07c0.01,0.02 0.04,0.06 0.04,0.08 0.36,0.65 1.12,0.98 1.74,1.36 0.41,0.26 1.14,0.44 1.66,0.63 1.15,0.41 2.32,0.71 3.48,1.05 1.15,0.34 2.36,0.69 3.51,1.01l3.58 0.95c0.57,0.17 3.16,0.74 3.58,0.96 -0.06,0.23 -0.16,0.34 -0.27,0.53 -0.74,1.23 -1.32,2.61 -1.6,4.02 -0.01,0.06 -0.04,0.14 -0.06,0.22 0,0.04 -0.02,0.19 -0.04,0.31 -0.2,1.25 -0.25,2.39 0.09,3.67 0.07,0.26 0.08,0.4 0.17,0.63 0.09,0.23 0.19,0.4 0.22,0.65 -1.55,1.04 -1.32,3.73 -2.86,4.88 -0.51,0.38 -0.93,0.35 -1.44,0.45 -0.31,0.07 -0.13,0.14 -0.12,0.46 0.67,0 1.52,-0.31 1.9,-0.62 0.69,-0.55 1.1,-1.53 1.44,-2.35 0.27,-0.68 0.45,-1.9 1.11,-2.32 0.18,-0.12 -0.02,-0.08 0.25,-0.1 0.06,0.27 0.5,0.92 0.67,1.17 0.25,0.37 0.48,0.73 0.78,1.05l1.35 1.41c0.16,0.17 0.34,0.25 0.47,0.44 -0.46,0.12 -0.69,1.15 -0.69,1.55 0,0.77 0.06,1.37 0.06,2.18 0,1.05 0.01,2.02 -0.78,2.6 -0.19,0.15 -0.48,0.38 -0.71,0.44 0,0.23 0.03,0.25 0.11,0.4 0.45,-0.04 1.13,-0.69 1.35,-1.01 1.23,-1.81 -0.32,-5.02 0.95,-5.87 0.25,0.06 1.49,1.01 1.85,1.24 0.88,0.53 1.83,1.02 2.8,1.39 0.25,0.1 0.57,0.18 0.79,0.29 -0.05,0.2 -0.93,1.27 -1.14,1.67 -0.57,1.04 -0.86,1.52 -0.12,2.57 1.1,1.57 2.18,1.7 1.91,2.83 -0.1,0.42 -0.38,0.79 -0.48,1.19 0.14,0.07 0.2,0.13 0.35,0.17l0 0c1.39,-2.64 0.21,-2.26 -1.19,-4.14 -1.01,-1.36 -0.74,-1.41 0.47,-3.23 0.12,-0.19 0.59,-0.85 0.72,-0.94 0.67,0.15 1.43,0.35 2.13,0.44 0.3,0.04 0.62,0.02 0.87,0.06 1.03,0.14 3.47,-0.48 4.43,-0.86 1.03,-0.42 1.96,-0.94 2.88,-1.55 0.1,-0.07 0.16,-0.1 0.27,-0.18 0.18,-0.14 0.07,-0.13 0.31,-0.15 0.09,0.37 0.32,0.62 0.55,1.8 0.05,0.29 0.09,0.38 0.16,0.64 0.13,0.5 0.75,2.08 0.78,2.43l1.2 -0.52c0.33,-0.12 1.03,-0.22 1.49,-0.22 0,-0.33 -0.43,-1.25 -0.59,-1.47 -0.67,-0.87 -0.72,-1.11 -1.29,-2.04 -0.01,-0.01 -0.01,-0.02 -0.02,-0.03l-0.31 -0.44c-0.29,-0.42 -0.59,-0.79 -0.82,-1.24 0.89,-0.6 3.05,-3.54 3.26,-4.47l2.04 0.15c0.74,0.1 2.5,0.21 2.85,0.87 0.16,0.31 0.27,0.69 0.35,1.09 0.16,0.81 0.03,1.66 0.71,2.26 0.22,0.19 0.64,0.47 0.99,0.5 0.08,-0.15 0.11,-0.16 0.12,-0.4 -0.23,-0.05 -0.79,-0.35 -0.94,-0.5 -0.57,-0.57 -0.27,-2.47 -1.03,-3.38 -0.43,-0.51 -1.33,-0.64 -2.14,-0.78 -0.4,-0.07 -0.87,-0.05 -1.32,-0.11 -0.4,-0.05 -0.92,-0.1 -1.4,-0.1 0.03,-0.35 0.41,-1.13 0.53,-1.54 0.1,-0.35 0.33,-1.41 0.33,-1.79 0.97,0 2.86,-0.07 3.45,0.68 0.22,0.27 0.4,0.48 0.6,0.78 1.15,1.73 0.87,2.56 2.95,2.56l0 -0.46c-1.18,0 -1.33,-0.07 -1.76,-0.94 -0.29,-0.58 -0.68,-1.21 -1.04,-1.71 -0.17,-0.23 -0.43,-0.57 -0.65,-0.73l-0.41 -0.27c-0.89,-0.41 -1.99,-0.36 -3.08,-0.36 0,-0.89 0.15,-0.81 0.62,-1.45 0.56,-0.73 0.93,-1.5 1.08,-2.53 0.19,-1.38 -0.23,-3.28 -1.17,-4.35 -0.28,-0.32 -0.34,-0.41 -0.68,-0.69 -0.27,-0.22 -0.54,-0.42 -0.86,-0.58 -1.02,-0.52 -2.36,-0.67 -3.58,-0.67 -1.14,0 -0.64,0.17 -2.03,-0.6 -0.95,-0.53 -3.29,-1.11 -4.41,-1.26 -0.85,-0.12 -0.5,0.17 -0.55,-0.77 -0.02,-0.21 -0.03,-0.12 -0.01,-0.26 0.1,-0.64 0.01,-0.55 0.04,-0.87 0.1,-1.23 0.59,-2.54 0.42,-3.85 -0.15,-1.07 -0.78,-3.48 -1.1,-4.58 -0.06,-0.2 -0.1,-0.35 -0.15,-0.54l-0.51 -1.67c-0.52,-1.86 -1.48,-3.93 -2.53,-5.61l-0.09 -0.13c-0.13,-0.18 -0.23,-0.29 -0.48,-0.32l-0.26 0c-1.09,0.1 -3.51,1.26 -4.51,1.65 -0.8,0.33 -1.47,0.9 -1.94,1.62l-1.42 2.19c-0.76,1.17 -1.41,2.45 -1.93,3.74 -0.33,0.84 0.32,1.22 0.84,1.73l1.49 1.33c0.12,0.1 0.26,0.2 0.38,0.31l2.29 1.95c1.02,0.89 2.11,1.71 3.12,2.61 0.18,0.15 0.18,0.22 0.36,0.38l0.9 0.88c0.18,0.15 0.5,0.28 0.56,0.53l-1.55 0.46z"/>
   <path class="fil1" d="M21.89 21.16c0.09,0.1 0.15,-0.05 -0.04,0.16 -0.02,0.02 -0.14,0.12 -0.16,0.14 -1.3,1.18 -2.77,3.55 -3.35,5.24 -0.41,1.19 -0.73,2.54 -0.71,3.91 0,0.78 0.57,3.32 1.12,3.46l1.62 -0.3 0.1 0.41 -1.6 0.31c0.75,1.15 1.25,1.79 2.28,2.72 0.17,0.14 0.79,0.63 0.88,0.81l0.87 -0.26 0.11 0.38 -0.45 0.16c0.1,0.37 2.72,1.7 3.2,1.92 0.39,0.19 0.87,0.31 1.23,0.51 0.16,-0.1 0.28,-0.26 0.41,-0.37l0.3 0.21c-0.11,0.21 -0.32,0.45 -0.49,0.63 -0.06,0.05 -0.43,0.48 -0.48,0.59 0.52,0.23 2.01,0.41 2.68,0.42 0.96,0.01 1.9,-0.12 2.78,-0.33 1.19,-0.29 3.49,-1.18 4.28,-1.92 -0.09,-0.35 -2.18,-3.21 -2.36,-3.65l0.78 0.8c0.6,0.63 1.71,1.87 2.03,2.61 0.52,1.18 -0.01,0.52 0.94,2.16 0.44,0.74 0.35,2.17 0.49,2.6 0.14,-0.3 0.13,-0.74 0.39,-1.21 0.25,-0.44 0.36,-0.51 0.9,-0.68 -0.08,-0.25 0.01,0.01 -0.06,-0.13 -0.02,-0.04 -0.04,-0.08 -0.07,-0.11 -0.41,-0.58 -0.9,-0.82 -1.37,-2.06 -0.11,-0.27 -0.19,-0.6 -0.36,-0.85 -0.17,-0.26 -0.38,-0.47 -0.54,-0.72 -0.32,-0.5 -0.54,-1.8 -0.66,-2.44 -0.01,-0.04 -0.04,-0.21 -0.04,-0.24l0.04 -0.24c0.13,0.42 0.49,1.01 0.68,1.46l0.57 1.54c0.33,-0.2 0.98,-1.05 1.28,-1.47 1.22,-1.71 2.05,-3.98 2.11,-6.18 -0.32,0.11 -0.04,0.02 -0.47,0.32l-1.22 0.78c-0.6,0.34 -1.18,0.61 -1.87,0.82 -2.05,0.61 -2.85,0.11 -4.35,-0.56 0,0 -0.85,0.64 -1.39,0.95 -4.32,2.53 -9.52,-1.51 -9.77,-4.75 -0.1,-1.34 0.45,-2.68 1,-3.61 0.42,-0.68 1.02,-1.33 1.62,-1.82 1.09,-0.88 2.66,-1.47 4.18,-1.59 1.51,-0.12 2.64,0.19 3.84,0.75 0.24,-0.13 0.29,-0.23 0.49,-0.39l1.51 -1.02c-0.27,0.03 -0.49,-0.16 -0.75,-0.27 -0.63,-0.28 -1.56,-0.58 -2.23,-0.75 -1.11,-0.3 -2.34,-0.45 -3.55,-0.42 -1.63,0.02 -3.52,0.41 -5,0.97 -0.31,0.12 -1.15,0.43 -1.37,0.6z"/>
   <path class="fil2" d="M17.94 24.52c0.17,-0.16 0.3,-0.39 0.45,-0.57 0.16,-0.22 0.3,-0.37 0.46,-0.57 0.16,-0.21 0.32,-0.34 0.49,-0.54 0.19,-0.21 0.33,-0.37 0.54,-0.56 1.29,-1.21 1.34,-1.02 2.34,-1.82 -0.29,-0.89 -1.91,-3 -2.55,-3.79 -1.18,-1.47 -4.58,-3.55 -6.17,-4.55 -1.52,-0.95 -5.05,-3.12 -6.73,-3.93 -0.85,-0.42 -1.03,-0.69 -1.45,-0.35 -1.01,0.8 -3.53,3.3 -4,4.54 -0.36,0.94 -0.54,2.61 -0.59,3.73 -0.02,0.67 -0.03,1.43 0.06,2.09 0.05,0.39 0.15,0.42 0.44,0.58 0.25,0.14 0.47,0.23 0.74,0.34 0.99,0.4 2.23,0.7 3.29,1.02 3.67,1.12 7.45,2.53 11.08,3.81 0.47,0.16 1.15,0.48 1.6,0.57z"/>
   <path class="fil2" d="M17.32 9.63c0.18,0.27 0.82,0.88 1.11,1.17l2.95 2.85c0.21,0.21 0.42,0.36 0.64,0.56l3.52 3.42c0.39,0.39 0.77,0.76 1.17,1.18 0.51,-0.02 1.17,-0.19 1.72,-0.24 0.68,-0.06 1.29,-0.04 1.96,-0.04 0.05,-1.59 0.33,-3.84 0.13,-5.36 -0.08,-0.56 -0.48,-1.55 -0.65,-2.11 -0.69,-2.12 -1.4,-4.15 -2.06,-6.31 -0.31,-1.02 -0.97,-3.5 -1.5,-4.14 -0.81,-0.03 -2.65,0.89 -3.27,1.21 -1.32,0.69 -1.78,0.95 -2.47,2.07 -0.38,0.61 -3.07,5.08 -3.25,5.74z"/>
   <path class="fil3" d="M27.65 22.11c-0.9,0.1 -1.49,0.4 -2.06,0.85 -1.57,1.25 -3.12,3.78 -2.63,5.89 0.61,2.62 4.61,4.67 7.07,4.39 2.47,-0.28 4.16,-1.85 4.54,-4.07 0.12,-0.69 0.18,-2.02 0.06,-2.7 -0.46,-2.7 -3.63,-4.74 -6.98,-4.36z"/>
   <path class="fil3" d="M33.23 22.72c0.52,0.16 1.47,1.15 1.76,1.56 1.17,1.65 1.22,3.42 0.45,5.31 -0.17,0.41 -0.34,0.75 -0.57,1.09l-0.71 1.03c0.47,0.14 0.83,0.41 1.46,0.55 0.59,0.13 1.29,0.09 1.88,-0.02 2.02,-0.38 3.86,-1.49 4.71,-3.44 0.94,-2.13 1.02,-4.53 -0.47,-6.34 -0.55,-0.67 -1.75,-1.18 -2.65,-1.42 -1.02,-0.27 -2.57,-0.57 -3.53,-0.16 -0.69,0.29 -2.03,1.3 -2.33,1.84z"/>
   <path class="fil4" d="M21.57 21.2c-0.44,0.32 -0.93,0.79 -1.31,1.18 -2.12,2.17 -3.63,4.96 -3.96,8.13 -0.18,1.75 0.1,2.58 0.66,3.98l1.79 -0.42c-0.55,-0.14 -1.12,-2.68 -1.12,-3.46 -0.02,-1.37 0.3,-2.72 0.71,-3.91 0.58,-1.69 2.05,-4.06 3.35,-5.24 0.02,-0.02 0.14,-0.12 0.16,-0.14 0.19,-0.21 0.13,-0.06 0.04,-0.16 -0.18,0.03 -0.21,0.1 -0.32,0.04z"/>
   <path class="fil3" d="M24.76 19.38l-0.11 0.04c0.05,0.07 0.19,-0.02 -0.12,0.11 -0.68,0.3 -0.59,0.17 -1.5,0.69 -0.5,0.29 -1.07,0.66 -1.46,0.98 0.11,0.06 0.14,-0.01 0.32,-0.04 0.22,-0.17 1.06,-0.48 1.37,-0.6 1.48,-0.56 3.37,-0.95 5,-0.97 1.21,-0.03 2.44,0.12 3.55,0.42 0.67,0.17 1.6,0.47 2.23,0.75 0.26,0.11 0.48,0.3 0.75,0.27l0.73 -0.32c-1.07,-0.75 -3.38,-1.45 -4.94,-1.66 -1.81,-0.24 -3.44,-0.14 -5.19,0.25 -0.17,0.04 -0.46,0.16 -0.63,0.08z"/>
   <path class="fil4" d="M22.03 38.02c-0.09,-0.18 -0.71,-0.67 -0.88,-0.81 -1.03,-0.93 -1.53,-1.57 -2.28,-2.72 -0.37,0.05 -1.4,0.24 -1.67,0.42 0.17,0.56 1.17,1.72 1.5,2.11 0.28,0.33 1.46,1.47 1.88,1.68 0.48,-0.23 0.93,-0.44 1.45,-0.68z"/>
   <path class="fil0" d="M33 27.93c-0.35,0.24 -0.75,0.27 -0.87,-0.22 -0.13,-0.53 0.2,-0.8 0.28,-1.12 -0.41,-0.17 -0.59,-0.34 -1.15,-0.15 -0.93,0.3 -1.78,1.44 -1.15,2.67 0.82,1.58 2.98,0.61 2.89,-1.18z"/>
   <path class="fil4" d="M26.99 40.73c-0.36,-0.2 -0.84,-0.32 -1.23,-0.51 -0.48,-0.22 -3.1,-1.55 -3.2,-1.92 -0.57,0.14 -1.13,0.48 -1.6,0.64 0.12,0.2 -0.03,0 0.09,0.13l0.21 0.15c0.13,0.09 0.17,0.12 0.3,0.21l1.89 1.1c0.7,0.35 2.03,0.98 2.8,1.13 0.17,-0.2 0.66,-0.71 0.74,-0.93z"/>
   <path class="fil0" d="M41.2 25.05c-0.02,-0.01 -0.04,-0.04 -0.05,-0.02 0,0 -0.63,-0.09 -0.7,-0.55 -0.03,-0.18 0,-0.43 0.05,-0.6 0.07,-0.23 0.18,-0.27 0.31,-0.38 -0.85,-1.29 -2.72,-0.62 -2.42,1.64 0.26,1.96 2.32,1.47 2.81,-0.09z"/>
   <path class="fil0" d="M22.01 35.06c-0.54,0.22 -0.74,1.02 -0.48,1.66 0.66,1.62 3,0.46 2.07,-0.87 -0.26,-0.37 -0.98,-1.04 -1.59,-0.79z"/>
   <path class="fil5" d="M22.12 35.29c-0.88,0.3 -0.46,2.49 0.93,1.86 1.3,-0.58 -0.22,-2.1 -0.93,-1.86z"/>
   <path class="fil0" d="M24.26 37.32c-0.74,0.4 -0.33,1.47 0.45,1.21 0.81,-0.27 0.2,-1.57 -0.45,-1.21z"/>
   <path class="fil6" d="M24.69 36.07c-0.13,1.05 1.07,1.01 1.22,0.49 0.12,-0.37 -0.08,-0.69 -0.37,-0.77 -0.47,-0.12 -0.6,0.09 -0.85,0.28z"/>
   <path class="fil5" d="M24.83 38.12c0.05,-0.32 -0.12,-0.46 -0.27,-0.63 -0.85,0.09 -0.31,1.34 0.27,0.63z"/>
  </g>
 </g>
</svg>
