<?xml version="1.0" encoding="UTF-8"?>
<!DOCTYPE svg PUBLIC "-//W3C//DTD SVG 1.1//EN" "http://www.w3.org/Graphics/SVG/1.1/DTD/svg11.dtd">
<!-- Creator: CorelDRAW 2020 (64 Bit) -->
<svg xmlns="http://www.w3.org/2000/svg" xml:space="preserve" width="88px" height="91px" version="1.1" style="shape-rendering:geometricPrecision; text-rendering:geometricPrecision; image-rendering:optimizeQuality; fill-rule:evenodd; clip-rule:evenodd"
viewBox="0 0 76 78.55"
 xmlns:xlink="http://www.w3.org/1999/xlink"
 xmlns:xodm="http://www.corel.com/coreldraw/odm/2003">
 <defs>
  <style type="text/css">
   <![CDATA[
    .fil0 {fill:#020202}
    .fil4 {fill:#295F9B}
    .fil6 {fill:#2B2B2B}
    .fil1 {fill:#5A7996}
    .fil5 {fill:#5B9761}
    .fil3 {fill:#DADEE8}
    .fil2 {fill:#FEF0F0}
   ]]>
  </style>
 </defs>
 <g id="Camada_x0020_1">
  <metadata id="CorelCorpID_0Corel-Layer"/>
  <g id="_2458850438672">
   <path class="fil0" d="M38.12 29.83c0.26,0.14 0.71,-0.05 0.97,-0.11 2.7,-0.61 5.21,-0.76 8,-0.39 2.39,0.32 5.96,1.41 7.6,2.55l-1.12 0.5 -2.32 1.57c-0.31,0.25 -0.39,0.41 -0.76,0.6 -1.86,-0.85 -3.59,-1.34 -5.92,-1.16 -2.34,0.19 -4.75,1.1 -6.43,2.46 -0.92,0.75 -1.85,1.75 -2.49,2.8 -0.86,1.42 -1.7,3.5 -1.54,5.56 0.37,4.98 8.39,11.2 15.04,7.32 0.83,-0.49 2.13,-1.48 2.13,-1.48 2.31,1.04 3.55,1.81 6.7,0.86 1.06,-0.32 1.97,-0.72 2.89,-1.26l1.88 -1.2c0.66,-0.46 0.23,-0.32 0.71,-0.49 -0.08,3.39 -1.36,6.89 -3.24,9.52 -0.47,0.64 -1.47,1.95 -1.97,2.26l-0.88 -2.37c-0.3,-0.69 -0.84,-1.6 -1.05,-2.24l-0.06 0.36c0,0.06 0.05,0.31 0.06,0.37 0.19,0.99 0.52,2.99 1.02,3.75 0.25,0.39 0.56,0.72 0.83,1.12 0.26,0.38 0.39,0.88 0.55,1.3 0.73,1.91 1.48,2.28 2.12,3.18 0.03,0.05 0.07,0.11 0.1,0.17 0.11,0.21 -0.03,-0.18 0.09,0.2 -0.82,0.25 -1,0.37 -1.37,1.05 -0.41,0.72 -0.39,1.4 -0.61,1.85 -0.22,-0.65 -0.08,-2.85 -0.75,-4 -1.48,-2.52 -0.65,-1.5 -1.45,-3.32 -0.49,-1.14 -2.21,-3.05 -3.13,-4.02l-1.2 -1.23c0.27,0.68 3.49,5.07 3.63,5.61 -1.21,1.14 -4.76,2.52 -6.59,2.96 -1.36,0.32 -2.8,0.53 -4.28,0.51 -1.02,-0.01 -3.32,-0.3 -4.12,-0.64 0.08,-0.18 0.65,-0.83 0.73,-0.92 0.27,-0.28 0.59,-0.63 0.76,-0.97l-0.46 -0.32c-0.2,0.17 -0.38,0.42 -0.63,0.58 -0.13,0.33 -0.88,1.11 -1.14,1.42 -1.18,-0.23 -3.24,-1.19 -4.32,-1.74l-2.9 -1.68c-0.2,-0.14 -0.27,-0.19 -0.47,-0.33l-0.31 -0.24c-0.19,-0.19 0.03,0.11 -0.15,-0.19 0.72,-0.24 1.58,-0.76 2.46,-0.99l0.7 -0.24 -0.18 -0.6 -1.33 0.42c-0.79,0.36 -1.5,0.68 -2.23,1.03 -0.65,-0.32 -2.47,-2.07 -2.9,-2.58 -0.5,-0.59 -2.04,-2.39 -2.31,-3.25 0.41,-0.27 2,-0.57 2.58,-0.65l2.45 -0.48 -0.14 -0.63 -2.5 0.47 -2.75 0.65c-0.86,-2.16 -1.3,-3.44 -1.03,-6.14 0.51,-4.88 2.85,-9.16 6.11,-12.51 0.58,-0.6 1.34,-1.32 2.01,-1.81 0.6,-0.5 1.47,-1.07 2.25,-1.51 1.41,-0.81 1.27,-0.61 2.32,-1.07 0.47,-0.2 0.25,-0.06 0.17,-0.16 -1.22,0.11 -2.41,0.88 -3.44,1.42 -0.21,-0.9 -1.78,-3.51 -2.42,-4.46 -1.19,-1.78 -2.47,-3.27 -4.08,-4.57l-2.99 -2.3c-0.36,-0.27 -0.64,-0.43 -0.99,-0.69l-1.84 -1.34c-0.01,-0.01 -0.03,-0.03 -0.05,-0.04 -2.78,-2 -9.36,-6.25 -11.99,-7.43 -2.18,-0.97 -2.68,-0.18 -4.39,1.53 -1.36,1.35 -2.82,3.18 -3.81,4.83 -0.81,1.34 -1.09,2.17 -1.33,3.89 -0.13,0.98 -0.33,2.14 -0.36,3.17 -0.01,0.61 -0.17,1.77 -0.26,2.84l0 1.93c0.02,0.08 0.03,0.14 0.06,0.21l0.05 0.11c0.01,0.03 0.05,0.09 0.07,0.12 0.54,1.01 1.71,1.52 2.66,2.1 0.64,0.39 1.77,0.68 2.57,0.96 1.76,0.63 3.56,1.1 5.35,1.63 1.77,0.52 3.64,1.06 5.41,1.56l5.51 1.46c0.88,0.25 4.86,1.13 5.51,1.47 -0.09,0.35 -0.24,0.52 -0.42,0.82 -1.14,1.89 -2.03,4.02 -2.46,6.18 -0.02,0.1 -0.06,0.22 -0.08,0.34 -0.01,0.06 -0.04,0.3 -0.07,0.48 -0.3,1.92 -0.38,3.68 0.14,5.65 0.11,0.4 0.12,0.62 0.26,0.98 0.13,0.34 0.3,0.6 0.33,0.99 -2.38,1.6 -2.03,5.75 -4.4,7.52 -0.78,0.59 -1.42,0.53 -2.22,0.7 -0.47,0.09 -0.19,0.2 -0.18,0.7 1.04,0 2.35,-0.49 2.93,-0.96 1.06,-0.84 1.69,-2.35 2.21,-3.62 0.42,-1.04 0.7,-2.93 1.72,-3.57 0.27,-0.18 -0.04,-0.11 0.38,-0.15 0.1,0.41 0.77,1.42 1.03,1.8 0.38,0.57 0.73,1.12 1.2,1.62l2.07 2.17c0.26,0.25 0.54,0.39 0.73,0.68 -0.7,0.19 -1.06,1.76 -1.06,2.38 0,1.19 0.09,2.12 0.09,3.36 0,1.61 0.02,3.11 -1.19,4.01 -0.3,0.22 -0.74,0.58 -1.1,0.66 0.01,0.36 0.05,0.39 0.17,0.62 0.7,-0.06 1.74,-1.05 2.07,-1.55 1.91,-2.79 -0.49,-7.73 1.46,-9.04 0.4,0.09 2.31,1.56 2.87,1.9 1.34,0.83 2.81,1.58 4.3,2.15 0.39,0.15 0.88,0.27 1.22,0.45 -0.08,0.31 -1.43,1.96 -1.76,2.57 -0.88,1.6 -1.32,2.35 -0.18,3.96 1.69,2.42 3.35,2.61 2.93,4.35 -0.15,0.65 -0.58,1.22 -0.73,1.83 0.21,0.11 0.31,0.2 0.53,0.26l0 0c2.15,-4.05 0.34,-3.47 -1.82,-6.37 -1.56,-2.09 -1.15,-2.16 0.71,-4.98 0.19,-0.29 0.92,-1.3 1.11,-1.44 1.04,0.24 2.21,0.54 3.29,0.68 0.45,0.06 0.95,0.03 1.33,0.09 1.58,0.23 5.34,-0.73 6.83,-1.33 1.59,-0.63 3.01,-1.43 4.42,-2.37 0.17,-0.11 0.25,-0.17 0.42,-0.29 0.28,-0.21 0.11,-0.19 0.48,-0.22 0.14,0.57 0.49,0.94 0.85,2.77 0.09,0.44 0.15,0.57 0.25,0.98 0.19,0.77 1.15,3.2 1.2,3.75l1.84 -0.81c0.51,-0.19 1.6,-0.34 2.31,-0.34 -0.01,-0.51 -0.66,-1.93 -0.92,-2.26 -1.03,-1.34 -1.1,-1.71 -1.98,-3.14 -0.01,-0.01 -0.03,-0.03 -0.04,-0.05l-0.47 -0.68c-0.44,-0.64 -0.91,-1.22 -1.27,-1.9 1.38,-0.93 4.7,-5.46 5.03,-6.89l3.13 0.23c1.15,0.16 3.85,0.33 4.39,1.35 0.25,0.47 0.41,1.05 0.54,1.67 0.24,1.24 0.05,2.56 1.1,3.48 0.33,0.3 0.99,0.73 1.52,0.78 0.13,-0.24 0.17,-0.26 0.18,-0.62 -0.36,-0.08 -1.21,-0.54 -1.44,-0.77 -0.88,-0.88 -0.42,-3.81 -1.59,-5.21 -0.66,-0.79 -2.05,-0.98 -3.3,-1.2 -0.6,-0.1 -1.33,-0.08 -2.03,-0.17 -0.62,-0.08 -1.41,-0.15 -2.15,-0.15 0.05,-0.55 0.63,-1.75 0.81,-2.37 0.16,-0.55 0.51,-2.18 0.52,-2.75 1.49,0 4.4,-0.12 5.31,1.04 0.33,0.42 0.61,0.74 0.92,1.2 1.77,2.66 1.35,3.93 4.54,3.93l0 -0.7c-1.82,0 -2.05,-0.1 -2.71,-1.44 -0.44,-0.9 -1.04,-1.87 -1.6,-2.64 -0.26,-0.35 -0.66,-0.87 -1,-1.12l-0.64 -0.42c-1.37,-0.63 -3.06,-0.56 -4.73,-0.56 0,-1.36 0.22,-1.25 0.96,-2.22 0.84,-1.12 1.42,-2.32 1.65,-3.91 0.3,-2.12 -0.35,-5.05 -1.8,-6.69 -0.43,-0.49 -0.52,-0.64 -1.05,-1.07 -0.41,-0.33 -0.83,-0.63 -1.32,-0.88 -1.57,-0.8 -3.64,-1.03 -5.51,-1.03 -1.76,0 -0.99,0.26 -3.12,-0.93 -1.47,-0.82 -5.08,-1.71 -6.8,-1.95 -1.3,-0.18 -0.76,0.27 -0.85,-1.18 -0.02,-0.32 -0.05,-0.18 -0.01,-0.4 0.15,-0.98 0.01,-0.84 0.06,-1.34 0.16,-1.89 0.9,-3.9 0.64,-5.92 -0.22,-1.66 -1.2,-5.36 -1.69,-7.05 -0.09,-0.32 -0.15,-0.54 -0.22,-0.83l-0.78 -2.57c-0.81,-2.88 -2.29,-6.06 -3.9,-8.64l-0.14 -0.21c-0.2,-0.27 -0.36,-0.45 -0.75,-0.49l-0.4 0c-1.67,0.15 -5.41,1.93 -6.94,2.55 -1.24,0.49 -2.26,1.37 -2.98,2.49l-2.2 3.36c-1.16,1.8 -2.17,3.77 -2.97,5.77 -0.51,1.28 0.51,1.87 1.3,2.67l2.29 2.04c0.19,0.15 0.4,0.3 0.58,0.47l3.53 3c1.58,1.37 3.25,2.64 4.81,4.02 0.27,0.24 0.27,0.35 0.56,0.59l1.37 1.36c0.28,0.23 0.77,0.43 0.87,0.81l-2.39 0.7z"/>
   <path class="fil1" d="M33.71 32.58c0.13,0.15 0.23,-0.07 -0.07,0.25 -0.02,0.03 -0.21,0.18 -0.25,0.21 -1.99,1.82 -4.26,5.46 -5.16,8.07 -0.63,1.83 -1.12,3.91 -1.09,6.02 0.01,1.2 0.88,5.11 1.73,5.33l2.5 -0.47 0.14 0.63 -2.45 0.48c1.16,1.78 1.92,2.77 3.51,4.19 0.25,0.22 1.21,0.97 1.35,1.26l1.33 -0.42 0.18 0.6 -0.7 0.24c0.16,0.57 4.2,2.62 4.93,2.96 0.61,0.29 1.34,0.48 1.9,0.79 0.25,-0.16 0.43,-0.41 0.63,-0.58l0.46 0.32c-0.17,0.34 -0.49,0.69 -0.76,0.97 -0.08,0.09 -0.65,0.74 -0.73,0.92 0.8,0.34 3.1,0.63 4.12,0.64 1.48,0.02 2.92,-0.19 4.28,-0.51 1.83,-0.44 5.38,-1.82 6.59,-2.96 -0.14,-0.54 -3.36,-4.93 -3.63,-5.61l1.2 1.23c0.92,0.97 2.64,2.88 3.13,4.02 0.8,1.82 -0.03,0.8 1.45,3.32 0.67,1.15 0.53,3.35 0.75,4 0.22,-0.45 0.2,-1.13 0.61,-1.85 0.37,-0.68 0.55,-0.8 1.37,-1.05 -0.12,-0.38 0.02,0.01 -0.09,-0.2 -0.03,-0.06 -0.07,-0.12 -0.1,-0.17 -0.64,-0.9 -1.39,-1.27 -2.12,-3.18 -0.16,-0.42 -0.29,-0.92 -0.55,-1.3 -0.27,-0.4 -0.58,-0.73 -0.83,-1.12 -0.5,-0.76 -0.83,-2.76 -1.02,-3.75 -0.01,-0.06 -0.06,-0.31 -0.06,-0.37l0.06 -0.36c0.21,0.64 0.75,1.55 1.05,2.24l0.88 2.37c0.5,-0.31 1.5,-1.62 1.97,-2.26 1.88,-2.63 3.16,-6.13 3.24,-9.52 -0.48,0.17 -0.05,0.03 -0.71,0.49l-1.88 1.2c-0.92,0.54 -1.83,0.94 -2.89,1.26 -3.15,0.95 -4.39,0.18 -6.7,-0.86 0,0 -1.3,0.99 -2.13,1.48 -6.65,3.88 -14.67,-2.34 -15.04,-7.32 -0.16,-2.06 0.68,-4.14 1.54,-5.56 0.64,-1.05 1.57,-2.05 2.49,-2.8 1.68,-1.36 4.09,-2.27 6.43,-2.46 2.33,-0.18 4.06,0.31 5.92,1.16 0.37,-0.19 0.45,-0.35 0.76,-0.6l2.32 -1.57c-0.42,0.04 -0.76,-0.24 -1.16,-0.42 -0.96,-0.43 -2.41,-0.89 -3.43,-1.16 -1.72,-0.45 -3.6,-0.67 -5.47,-0.64 -2.51,0.04 -5.42,0.64 -7.7,1.5 -0.47,0.18 -1.76,0.67 -2.1,0.92z"/>
   <path class="fil2" d="M27.63 37.76c0.25,-0.26 0.46,-0.6 0.68,-0.89 0.25,-0.32 0.47,-0.57 0.71,-0.87 0.25,-0.32 0.5,-0.53 0.76,-0.83 0.28,-0.33 0.51,-0.57 0.82,-0.86 2,-1.87 2.07,-1.58 3.61,-2.8 -0.45,-1.38 -2.94,-4.62 -3.92,-5.84 -1.82,-2.26 -7.06,-5.47 -9.5,-7 -2.34,-1.48 -7.79,-4.81 -10.36,-6.06 -1.32,-0.64 -1.59,-1.06 -2.24,-0.54 -1.56,1.24 -5.44,5.08 -6.17,6.99 -0.55,1.45 -0.82,4.02 -0.89,5.74 -0.04,1.03 -0.06,2.21 0.08,3.22 0.08,0.6 0.24,0.64 0.68,0.89 0.39,0.22 0.73,0.37 1.14,0.53 1.52,0.61 3.44,1.07 5.06,1.57 5.67,1.72 11.48,3.89 17.08,5.87 0.71,0.25 1.76,0.73 2.46,0.88z"/>
   <path class="fil2" d="M26.67 14.83c0.27,0.42 1.25,1.35 1.71,1.8l4.54 4.38c0.33,0.33 0.65,0.56 0.99,0.87l5.41 5.26c0.61,0.61 1.19,1.18 1.81,1.83 0.79,-0.04 1.79,-0.3 2.65,-0.37 1.04,-0.09 1.98,-0.07 3.01,-0.07 0.07,-2.44 0.51,-5.91 0.2,-8.25 -0.12,-0.87 -0.73,-2.39 -1,-3.25 -1.06,-3.27 -2.15,-6.39 -3.16,-9.71 -0.48,-1.57 -1.51,-5.4 -2.32,-6.38 -1.24,-0.05 -4.08,1.37 -5.04,1.87 -2.03,1.06 -2.74,1.46 -3.8,3.18 -0.58,0.93 -4.73,7.83 -5,8.84z"/>
   <path class="fil3" d="M42.57 34.05c-1.38,0.15 -2.29,0.61 -3.16,1.3 -2.43,1.92 -4.82,5.82 -4.06,9.07 0.95,4.03 7.11,7.19 10.89,6.76 3.8,-0.42 6.4,-2.85 6.98,-6.26 0.19,-1.07 0.28,-3.12 0.1,-4.16 -0.7,-4.16 -5.59,-7.3 -10.75,-6.71z"/>
   <path class="fil3" d="M51.17 34.99c0.8,0.24 2.26,1.77 2.71,2.4 1.8,2.53 1.87,5.26 0.68,8.17 -0.25,0.63 -0.52,1.16 -0.87,1.69l-1.1 1.57c0.73,0.22 1.29,0.63 2.25,0.85 0.92,0.21 1.99,0.15 2.9,-0.03 3.12,-0.58 5.94,-2.3 7.26,-5.3 1.43,-3.27 1.57,-6.96 -0.72,-9.76 -0.85,-1.04 -2.71,-1.82 -4.09,-2.19 -1.58,-0.41 -3.96,-0.87 -5.44,-0.24 -1.06,0.45 -3.13,2.01 -3.58,2.84z"/>
   <path class="fil4" d="M33.21 32.65c-0.67,0.49 -1.43,1.21 -2.01,1.81 -3.26,3.35 -5.6,7.63 -6.11,12.51 -0.27,2.7 0.17,3.98 1.03,6.14l2.75 -0.65c-0.85,-0.22 -1.72,-4.13 -1.73,-5.33 -0.03,-2.11 0.46,-4.19 1.09,-6.02 0.9,-2.61 3.17,-6.25 5.16,-8.07 0.04,-0.03 0.23,-0.18 0.25,-0.21 0.3,-0.32 0.2,-0.1 0.07,-0.25 -0.29,0.05 -0.33,0.16 -0.5,0.07z"/>
   <path class="fil3" d="M38.12 29.83l-0.17 0.08c0.08,0.1 0.3,-0.04 -0.17,0.16 -1.05,0.46 -0.91,0.26 -2.32,1.07 -0.78,0.44 -1.65,1.01 -2.25,1.51 0.17,0.09 0.21,-0.02 0.5,-0.07 0.34,-0.25 1.63,-0.74 2.1,-0.92 2.28,-0.86 5.19,-1.46 7.7,-1.5 1.87,-0.03 3.75,0.19 5.47,0.64 1.02,0.27 2.47,0.73 3.43,1.16 0.4,0.18 0.74,0.46 1.16,0.42l1.12 -0.5c-1.64,-1.14 -5.21,-2.23 -7.6,-2.55 -2.79,-0.37 -5.3,-0.22 -8,0.39 -0.26,0.06 -0.71,0.25 -0.97,0.11z"/>
   <path class="fil4" d="M33.92 58.55c-0.14,-0.29 -1.1,-1.04 -1.35,-1.26 -1.59,-1.42 -2.35,-2.41 -3.51,-4.19 -0.58,0.08 -2.17,0.38 -2.58,0.65 0.27,0.86 1.81,2.66 2.31,3.25 0.43,0.51 2.25,2.26 2.9,2.58 0.73,-0.35 1.44,-0.67 2.23,-1.03z"/>
   <path class="fil0" d="M50.81 43.01c-0.54,0.36 -1.15,0.41 -1.33,-0.34 -0.21,-0.82 0.29,-1.24 0.42,-1.73 -0.63,-0.26 -0.91,-0.52 -1.78,-0.24 -1.43,0.47 -2.74,2.23 -1.76,4.11 1.26,2.44 4.59,0.95 4.45,-1.8z"/>
   <path class="fil4" d="M41.56 62.72c-0.56,-0.31 -1.29,-0.5 -1.9,-0.79 -0.73,-0.34 -4.77,-2.39 -4.93,-2.96 -0.88,0.23 -1.74,0.75 -2.46,0.99 0.18,0.3 -0.04,0 0.15,0.19l0.31 0.24c0.2,0.14 0.27,0.19 0.47,0.33l2.9 1.68c1.08,0.55 3.14,1.51 4.32,1.74 0.26,-0.31 1.01,-1.09 1.14,-1.42z"/>
   <path class="fil0" d="M63.43 38.57c-0.02,-0.01 -0.06,-0.06 -0.07,-0.03 0,0 -0.97,-0.14 -1.08,-0.85 -0.04,-0.27 0.01,-0.66 0.08,-0.93 0.1,-0.34 0.27,-0.4 0.47,-0.57 -1.3,-2 -4.18,-0.96 -3.72,2.52 0.39,3.01 3.57,2.26 4.32,-0.14z"/>
   <path class="fil0" d="M33.89 53.99c-0.84,0.34 -1.14,1.56 -0.74,2.54 1.01,2.5 4.61,0.71 3.19,-1.34 -0.4,-0.56 -1.51,-1.58 -2.45,-1.2z"/>
   <path class="fil5" d="M34.06 54.33c-1.36,0.46 -0.71,3.85 1.43,2.88 2.01,-0.91 -0.35,-3.24 -1.43,-2.88z"/>
   <path class="fil0" d="M37.35 57.46c-1.14,0.61 -0.5,2.26 0.7,1.86 1.24,-0.42 0.3,-2.4 -0.7,-1.86z"/>
   <path class="fil6" d="M38.02 55.54c-0.21,1.62 1.64,1.56 1.88,0.75 0.17,-0.57 -0.14,-1.06 -0.57,-1.18 -0.73,-0.19 -0.93,0.14 -1.31,0.43z"/>
   <path class="fil5" d="M38.23 58.7c0.07,-0.5 -0.18,-0.71 -0.42,-0.98 -1.31,0.14 -0.48,2.06 0.42,0.98z"/>
  </g>
 </g>
</svg>
