<?xml version="1.0" encoding="UTF-8"?>
<!DOCTYPE svg PUBLIC "-//W3C//DTD SVG 1.1//EN" "http://www.w3.org/Graphics/SVG/1.1/DTD/svg11.dtd">
<!-- Creator: CorelDRAW 2020 (64 Bit) -->
<svg xmlns="http://www.w3.org/2000/svg" xml:space="preserve" width="88px" height="91px" version="1.1" style="shape-rendering:geometricPrecision; text-rendering:geometricPrecision; image-rendering:optimizeQuality; fill-rule:evenodd; clip-rule:evenodd"
viewBox="0 0 76 78.56"
 xmlns:xlink="http://www.w3.org/1999/xlink"
 xmlns:xodm="http://www.corel.com/coreldraw/odm/2003">
 <defs>
  <style type="text/css">
   <![CDATA[
    .fil0 {fill:#020202}
    .fil4 {fill:#295F9B}
    .fil6 {fill:#2B2B2B}
    .fil1 {fill:#5A7996}
    .fil5 {fill:#5B9761}
    .fil3 {fill:#DADEE8}
    .fil2 {fill:#FEF0F0}
   ]]>
  </style>
 </defs>
 <g id="Camada_x0020_1">
  <metadata id="CorelCorpID_0Corel-Layer"/>
  <g id="_2457608159104">
   <path class="fil0" d="M37.88 29.83c-0.26,0.14 -0.71,-0.05 -0.98,-0.11 -2.7,-0.61 -5.2,-0.76 -7.99,-0.39 -2.4,0.32 -5.96,1.41 -7.61,2.55l1.12 0.5 2.33 1.57c0.31,0.25 0.39,0.41 0.76,0.6 1.85,-0.85 3.58,-1.34 5.91,-1.16 2.35,0.19 4.76,1.1 6.43,2.46 0.93,0.75 1.86,1.75 2.49,2.8 0.86,1.42 1.71,3.5 1.55,5.56 -0.38,4.98 -8.39,11.2 -15.04,7.32 -0.84,-0.49 -2.13,-1.48 -2.14,-1.48 -2.3,1.04 -3.54,1.81 -6.69,0.86 -1.07,-0.32 -1.97,-0.72 -2.89,-1.26l-1.88 -1.2c-0.66,-0.46 -0.23,-0.32 -0.72,-0.49 0.09,3.39 1.36,6.89 3.25,9.52 0.46,0.64 1.46,1.95 1.96,2.26l0.88 -2.37c0.3,-0.69 0.85,-1.6 1.06,-2.24l0.06 0.36c0,0.06 -0.05,0.31 -0.06,0.37 -0.19,0.99 -0.53,2.99 -1.02,3.75 -0.25,0.39 -0.57,0.72 -0.84,1.12 -0.26,0.38 -0.39,0.88 -0.54,1.3 -0.74,1.91 -1.49,2.28 -2.12,3.18 -0.04,0.05 -0.07,0.11 -0.11,0.17 -0.11,0.21 0.04,-0.18 -0.09,0.2 0.83,0.25 1,0.37 1.38,1.05 0.4,0.72 0.39,1.4 0.61,1.85 0.22,-0.65 0.08,-2.85 0.75,-4 1.47,-2.52 0.65,-1.5 1.44,-3.32 0.5,-1.14 2.22,-3.05 3.13,-4.02l1.21 -1.23c-0.27,0.68 -3.49,5.07 -3.64,5.61 1.22,1.14 4.76,2.52 6.6,2.96 1.35,0.32 2.8,0.53 4.28,0.51 1.02,-0.01 3.31,-0.3 4.12,-0.64 -0.08,-0.18 -0.65,-0.83 -0.74,-0.92 -0.26,-0.28 -0.58,-0.63 -0.75,-0.97l0.45 -0.32c0.21,0.17 0.39,0.42 0.63,0.58 0.14,0.33 0.89,1.11 1.15,1.42 1.18,-0.23 3.24,-1.19 4.32,-1.74l2.9 -1.68c0.2,-0.14 0.27,-0.19 0.46,-0.33l0.32 -0.24c0.19,-0.19 -0.04,0.11 0.15,-0.19 -0.72,-0.24 -1.58,-0.76 -2.47,-0.99l-0.69 -0.24 0.17 -0.6 1.34 0.42c0.79,0.36 1.5,0.68 2.23,1.03 0.65,-0.32 2.46,-2.07 2.9,-2.58 0.5,-0.59 2.04,-2.39 2.3,-3.25 -0.41,-0.27 -1.99,-0.57 -2.57,-0.65l-2.45 -0.48 0.14 -0.63 2.5 0.47 2.75 0.65c0.86,-2.16 1.3,-3.44 1.02,-6.14 -0.5,-4.88 -2.84,-9.16 -6.1,-12.51 -0.59,-0.6 -1.34,-1.32 -2.01,-1.81 -0.6,-0.5 -1.48,-1.07 -2.25,-1.51 -1.41,-0.81 -1.27,-0.61 -2.32,-1.07 -0.48,-0.2 -0.26,-0.06 -0.18,-0.16 1.23,0.11 2.41,0.88 3.44,1.42 0.22,-0.9 1.79,-3.51 2.42,-4.46 1.2,-1.78 2.48,-3.27 4.09,-4.57l2.99 -2.3c0.36,-0.27 0.64,-0.43 0.98,-0.69l1.84 -1.34c0.02,-0.01 0.04,-0.03 0.05,-0.04 2.79,-2 9.37,-6.25 12,-7.43 2.17,-0.97 2.68,-0.18 4.39,1.53 1.35,1.35 2.82,3.18 3.81,4.83 0.81,1.34 1.09,2.17 1.32,3.89 0.14,0.98 0.34,2.14 0.36,3.17 0.02,0.61 0.18,1.77 0.27,2.84l0 1.93c-0.02,0.08 -0.04,0.14 -0.06,0.21l-0.06 0.11c-0.01,0.03 -0.05,0.09 -0.06,0.12 -0.54,1.01 -1.71,1.52 -2.66,2.1 -0.65,0.39 -1.77,0.68 -2.57,0.96 -1.76,0.63 -3.57,1.1 -5.35,1.63 -1.77,0.52 -3.64,1.06 -5.41,1.56l-5.52 1.46c-0.87,0.25 -4.86,1.13 -5.5,1.47 0.08,0.35 0.23,0.52 0.41,0.82 1.15,1.89 2.04,4.02 2.47,6.18 0.02,0.1 0.06,0.22 0.08,0.34 0.01,0.06 0.04,0.3 0.07,0.48 0.3,1.92 0.38,3.68 -0.15,5.65 -0.1,0.4 -0.11,0.62 -0.25,0.98 -0.14,0.34 -0.3,0.6 -0.33,0.99 2.38,1.6 2.03,5.75 4.39,7.52 0.79,0.59 1.43,0.53 2.23,0.7 0.46,0.09 0.18,0.2 0.17,0.7 -1.03,0 -2.34,-0.49 -2.93,-0.96 -1.05,-0.84 -1.68,-2.35 -2.2,-3.62 -0.42,-1.04 -0.71,-2.93 -1.72,-3.57 -0.28,-0.18 0.04,-0.11 -0.39,-0.15 -0.09,0.41 -0.76,1.42 -1.02,1.8 -0.38,0.57 -0.74,1.12 -1.2,1.62l-2.08 2.17c-0.25,0.25 -0.53,0.39 -0.73,0.68 0.71,0.19 1.07,1.76 1.07,2.38 0,1.19 -0.1,2.12 -0.1,3.36 0,1.61 -0.02,3.11 1.2,4.01 0.3,0.22 0.74,0.58 1.1,0.66 -0.01,0.36 -0.05,0.39 -0.18,0.62 -0.69,-0.06 -1.73,-1.05 -2.07,-1.55 -1.9,-2.79 0.5,-7.73 -1.46,-9.04 -0.39,0.09 -2.3,1.56 -2.86,1.9 -1.35,0.83 -2.82,1.58 -4.3,2.15 -0.4,0.15 -0.89,0.27 -1.22,0.45 0.08,0.31 1.43,1.96 1.76,2.57 0.87,1.6 1.32,2.35 0.18,3.96 -1.7,2.42 -3.35,2.61 -2.94,4.35 0.16,0.65 0.59,1.22 0.73,1.83 -0.21,0.11 -0.3,0.2 -0.53,0.26l0 0c-2.14,-4.05 -0.33,-3.47 1.83,-6.37 1.56,-2.09 1.14,-2.16 -0.71,-4.98 -0.2,-0.29 -0.92,-1.3 -1.12,-1.44 -1.03,0.24 -2.2,0.54 -3.29,0.68 -0.45,0.06 -0.94,0.03 -1.32,0.09 -1.59,0.23 -5.35,-0.73 -6.84,-1.33 -1.58,-0.63 -3.01,-1.43 -4.42,-2.37 -0.16,-0.11 -0.24,-0.17 -0.41,-0.29 -0.29,-0.21 -0.12,-0.19 -0.49,-0.22 -0.13,0.57 -0.48,0.94 -0.84,2.77 -0.09,0.44 -0.15,0.57 -0.25,0.98 -0.19,0.77 -1.16,3.2 -1.2,3.75l-1.84 -0.81c-0.51,-0.19 -1.6,-0.34 -2.31,-0.34 0.01,-0.51 0.66,-1.93 0.92,-2.26 1.03,-1.34 1.1,-1.71 1.98,-3.14 0.01,-0.01 0.02,-0.03 0.03,-0.05l0.48 -0.68c0.44,-0.64 0.91,-1.22 1.27,-1.9 -1.38,-0.93 -4.7,-5.46 -5.03,-6.89l-3.13 0.23c-1.15,0.16 -3.85,0.33 -4.39,1.35 -0.26,0.47 -0.42,1.05 -0.54,1.67 -0.25,1.24 -0.05,2.56 -1.1,3.48 -0.33,0.3 -0.99,0.73 -1.52,0.78 -0.13,-0.24 -0.17,-0.26 -0.18,-0.62 0.35,-0.08 1.2,-0.54 1.43,-0.77 0.89,-0.88 0.42,-3.81 1.59,-5.21 0.66,-0.79 2.06,-0.98 3.31,-1.2 0.6,-0.1 1.33,-0.08 2.03,-0.17 0.61,-0.08 1.41,-0.15 2.14,-0.15 -0.04,-0.55 -0.62,-1.75 -0.81,-2.37 -0.15,-0.55 -0.5,-2.18 -0.51,-2.75 -1.49,0 -4.4,-0.12 -5.31,1.04 -0.33,0.42 -0.62,0.74 -0.92,1.2 -1.77,2.66 -1.35,3.93 -4.54,3.93l0 -0.7c1.82,0 2.04,-0.1 2.71,-1.44 0.44,-0.9 1.04,-1.87 1.6,-2.64 0.26,-0.35 0.66,-0.87 1,-1.12l0.63 -0.42c1.38,-0.63 3.06,-0.56 4.74,-0.56 0,-1.36 -0.22,-1.25 -0.96,-2.22 -0.85,-1.12 -1.43,-2.32 -1.65,-3.91 -0.31,-2.12 0.35,-5.05 1.8,-6.69 0.43,-0.49 0.52,-0.64 1.05,-1.07 0.41,-0.33 0.83,-0.63 1.32,-0.88 1.56,-0.8 3.64,-1.03 5.5,-1.03 1.76,0 0.99,0.26 3.13,-0.93 1.47,-0.82 5.07,-1.71 6.79,-1.95 1.31,-0.18 0.77,0.27 0.86,-1.18 0.02,-0.32 0.04,-0.18 0.01,-0.4 -0.15,-0.98 -0.02,-0.84 -0.06,-1.34 -0.16,-1.89 -0.91,-3.9 -0.64,-5.92 0.21,-1.66 1.19,-5.36 1.68,-7.05 0.09,-0.32 0.16,-0.54 0.23,-0.83l0.78 -2.57c0.81,-2.88 2.28,-6.06 3.9,-8.64l0.14 -0.21c0.2,-0.27 0.36,-0.45 0.74,-0.49l0.4 0c1.68,0.15 5.41,1.93 6.95,2.55 1.23,0.49 2.25,1.37 2.98,2.49l2.19 3.36c1.17,1.8 2.17,3.77 2.97,5.77 0.52,1.28 -0.5,1.87 -1.29,2.67l-2.29 2.04c-0.19,0.15 -0.4,0.3 -0.58,0.47l-3.54 3c-1.57,1.37 -3.24,2.64 -4.81,4.02 -0.26,0.24 -0.27,0.35 -0.55,0.59l-1.38 1.36c-0.27,0.23 -0.77,0.43 -0.87,0.81l2.4 0.7z"/>
   <path class="fil1" d="M42.29 32.58c-0.14,0.15 -0.23,-0.07 0.07,0.25 0.02,0.03 0.21,0.18 0.24,0.21 2,1.82 4.27,5.46 5.17,8.07 0.63,1.83 1.11,3.91 1.09,6.02 -0.01,1.2 -0.88,5.11 -1.73,5.33l-2.5 -0.47 -0.14 0.63 2.45 0.48c-1.16,1.78 -1.93,2.77 -3.51,4.19 -0.25,0.22 -1.22,0.97 -1.35,1.26l-1.34 -0.42 -0.17 0.6 0.69 0.24c-0.15,0.57 -4.19,2.62 -4.92,2.96 -0.61,0.29 -1.34,0.48 -1.91,0.79 -0.24,-0.16 -0.42,-0.41 -0.63,-0.58l-0.45 0.32c0.17,0.34 0.49,0.69 0.75,0.97 0.09,0.09 0.66,0.74 0.74,0.92 -0.81,0.34 -3.1,0.63 -4.12,0.64 -1.48,0.02 -2.93,-0.19 -4.28,-0.51 -1.84,-0.44 -5.38,-1.82 -6.6,-2.96 0.15,-0.54 3.37,-4.93 3.64,-5.61l-1.21 1.23c-0.91,0.97 -2.63,2.88 -3.13,4.02 -0.79,1.82 0.03,0.8 -1.44,3.32 -0.67,1.15 -0.53,3.35 -0.75,4 -0.22,-0.45 -0.21,-1.13 -0.61,-1.85 -0.38,-0.68 -0.55,-0.8 -1.38,-1.05 0.13,-0.38 -0.02,0.01 0.09,-0.2 0.04,-0.06 0.07,-0.12 0.11,-0.17 0.63,-0.9 1.38,-1.27 2.12,-3.18 0.15,-0.42 0.28,-0.92 0.54,-1.3 0.27,-0.4 0.59,-0.73 0.84,-1.12 0.49,-0.76 0.83,-2.76 1.02,-3.75 0.01,-0.06 0.06,-0.31 0.06,-0.37l-0.06 -0.36c-0.21,0.64 -0.76,1.55 -1.06,2.24l-0.88 2.37c-0.5,-0.31 -1.5,-1.62 -1.96,-2.26 -1.89,-2.63 -3.16,-6.13 -3.25,-9.52 0.49,0.17 0.06,0.03 0.72,0.49l1.88 1.2c0.92,0.54 1.82,0.94 2.89,1.26 3.15,0.95 4.39,0.18 6.69,-0.86 0.01,0 1.3,0.99 2.14,1.48 6.65,3.88 14.66,-2.34 15.04,-7.32 0.16,-2.06 -0.69,-4.14 -1.55,-5.56 -0.63,-1.05 -1.56,-2.05 -2.49,-2.8 -1.67,-1.36 -4.08,-2.27 -6.43,-2.46 -2.33,-0.18 -4.06,0.31 -5.91,1.16 -0.37,-0.19 -0.45,-0.35 -0.76,-0.6l-2.33 -1.57c0.42,0.04 0.77,-0.24 1.16,-0.42 0.97,-0.43 2.41,-0.89 3.43,-1.16 1.72,-0.45 3.61,-0.67 5.47,-0.64 2.51,0.04 5.43,0.64 7.7,1.5 0.47,0.18 1.77,0.67 2.11,0.92z"/>
   <path class="fil2" d="M48.37 37.76c-0.26,-0.26 -0.46,-0.6 -0.68,-0.89 -0.26,-0.32 -0.48,-0.57 -0.72,-0.87 -0.24,-0.32 -0.49,-0.53 -0.76,-0.83 -0.28,-0.33 -0.51,-0.57 -0.82,-0.86 -1.99,-1.87 -2.07,-1.58 -3.6,-2.8 0.45,-1.38 2.94,-4.62 3.92,-5.84 1.82,-2.26 7.06,-5.47 9.5,-7 2.34,-1.48 7.78,-4.81 10.36,-6.06 1.32,-0.64 1.59,-1.06 2.24,-0.54 1.56,1.24 5.43,5.08 6.16,6.99 0.55,1.45 0.83,4.02 0.9,5.74 0.04,1.03 0.05,2.21 -0.09,3.22 -0.08,0.6 -0.23,0.64 -0.67,0.89 -0.39,0.22 -0.73,0.37 -1.15,0.53 -1.52,0.61 -3.43,1.07 -5.06,1.57 -5.66,1.72 -11.47,3.89 -17.07,5.87 -0.72,0.25 -1.76,0.73 -2.46,0.88z"/>
   <path class="fil2" d="M49.32 14.83c-0.26,0.42 -1.25,1.35 -1.71,1.8l-4.53 4.38c-0.33,0.33 -0.65,0.56 -0.99,0.87l-5.41 5.26c-0.61,0.61 -1.19,1.18 -1.82,1.83 -0.78,-0.04 -1.79,-0.3 -2.65,-0.37 -1.03,-0.09 -1.97,-0.07 -3,-0.07 -0.08,-2.44 -0.51,-5.91 -0.2,-8.25 0.11,-0.87 0.73,-2.39 1,-3.25 1.06,-3.27 2.15,-6.39 3.16,-9.71 0.48,-1.57 1.5,-5.4 2.31,-6.38 1.25,-0.05 4.09,1.37 5.05,1.87 2.03,1.06 2.73,1.46 3.8,3.18 0.58,0.93 4.72,7.83 4.99,8.84z"/>
   <path class="fil3" d="M33.42 34.05c1.39,0.15 2.3,0.61 3.17,1.3 2.43,1.92 4.82,5.82 4.05,9.07 -0.94,4.03 -7.1,7.19 -10.88,6.76 -3.81,-0.42 -6.4,-2.85 -6.99,-6.26 -0.18,-1.07 -0.27,-3.12 -0.1,-4.16 0.71,-4.16 5.6,-7.3 10.75,-6.71z"/>
   <path class="fil3" d="M24.83 34.99c-0.8,0.24 -2.27,1.77 -2.71,2.4 -1.8,2.53 -1.87,5.26 -0.69,8.17 0.26,0.63 0.52,1.16 0.88,1.69l1.09 1.57c-0.72,0.22 -1.28,0.63 -2.24,0.85 -0.93,0.21 -1.99,0.15 -2.9,-0.03 -3.12,-0.58 -5.94,-2.3 -7.26,-5.3 -1.44,-3.27 -1.57,-6.96 0.72,-9.76 0.85,-1.04 2.7,-1.82 4.08,-2.19 1.58,-0.41 3.97,-0.87 5.45,-0.24 1.06,0.45 3.13,2.01 3.58,2.84z"/>
   <path class="fil4" d="M42.79 32.65c0.67,0.49 1.42,1.21 2.01,1.81 3.26,3.35 5.6,7.63 6.1,12.51 0.28,2.7 -0.16,3.98 -1.02,6.14l-2.75 -0.65c0.85,-0.22 1.72,-4.13 1.73,-5.33 0.02,-2.11 -0.46,-4.19 -1.09,-6.02 -0.9,-2.61 -3.17,-6.25 -5.17,-8.07 -0.03,-0.03 -0.22,-0.18 -0.24,-0.21 -0.3,-0.32 -0.21,-0.1 -0.07,-0.25 0.29,0.05 0.33,0.16 0.5,0.07z"/>
   <path class="fil3" d="M37.88 29.83l0.16 0.08c-0.08,0.1 -0.3,-0.04 0.18,0.16 1.05,0.46 0.91,0.26 2.32,1.07 0.77,0.44 1.65,1.01 2.25,1.51 -0.17,0.09 -0.21,-0.02 -0.5,-0.07 -0.34,-0.25 -1.64,-0.74 -2.11,-0.92 -2.27,-0.86 -5.19,-1.46 -7.7,-1.5 -1.86,-0.03 -3.75,0.19 -5.47,0.64 -1.02,0.27 -2.46,0.73 -3.43,1.16 -0.39,0.18 -0.74,0.46 -1.16,0.42l-1.12 -0.5c1.65,-1.14 5.21,-2.23 7.61,-2.55 2.79,-0.37 5.29,-0.22 7.99,0.39 0.27,0.06 0.72,0.25 0.98,0.11z"/>
   <path class="fil4" d="M42.08 58.55c0.13,-0.29 1.1,-1.04 1.35,-1.26 1.58,-1.42 2.35,-2.41 3.51,-4.19 0.58,0.08 2.16,0.38 2.57,0.65 -0.26,0.86 -1.8,2.66 -2.3,3.25 -0.44,0.51 -2.25,2.26 -2.9,2.58 -0.73,-0.35 -1.44,-0.67 -2.23,-1.03z"/>
   <path class="fil0" d="M25.19 43.01c0.54,0.36 1.14,0.41 1.33,-0.34 0.2,-0.82 -0.29,-1.24 -0.42,-1.73 0.62,-0.26 0.9,-0.52 1.77,-0.24 1.43,0.47 2.74,2.23 1.77,4.11 -1.26,2.44 -4.59,0.95 -4.45,-1.8z"/>
   <path class="fil4" d="M34.43 62.72c0.57,-0.31 1.3,-0.5 1.91,-0.79 0.73,-0.34 4.77,-2.39 4.92,-2.96 0.89,0.23 1.75,0.75 2.47,0.99 -0.19,0.3 0.04,0 -0.15,0.19l-0.32 0.24c-0.19,0.14 -0.26,0.19 -0.46,0.33l-2.9 1.68c-1.08,0.55 -3.14,1.51 -4.32,1.74 -0.26,-0.31 -1.01,-1.09 -1.15,-1.42z"/>
   <path class="fil0" d="M12.56 38.57c0.03,-0.01 0.07,-0.06 0.08,-0.03 0,0 0.96,-0.14 1.08,-0.85 0.04,-0.27 -0.01,-0.66 -0.09,-0.93 -0.1,-0.34 -0.27,-0.4 -0.47,-0.57 1.31,-2 4.18,-0.96 3.73,2.52 -0.4,3.01 -3.57,2.26 -4.33,-0.14z"/>
   <path class="fil0" d="M42.11 53.99c0.83,0.34 1.14,1.56 0.74,2.54 -1.02,2.5 -4.62,0.71 -3.19,-1.34 0.4,-0.56 1.51,-1.58 2.45,-1.2z"/>
   <path class="fil5" d="M41.94 54.33c1.35,0.46 0.71,3.85 -1.44,2.88 -2,-0.91 0.35,-3.24 1.44,-2.88z"/>
   <path class="fil0" d="M38.64 57.46c1.15,0.61 0.5,2.26 -0.69,1.86 -1.25,-0.42 -0.31,-2.4 0.69,-1.86z"/>
   <path class="fil6" d="M37.98 55.54c0.2,1.62 -1.64,1.56 -1.88,0.75 -0.18,-0.57 0.13,-1.06 0.57,-1.18 0.73,-0.19 0.93,0.14 1.31,0.43z"/>
   <path class="fil5" d="M37.77 58.7c-0.07,-0.5 0.18,-0.71 0.42,-0.98 1.3,0.14 0.47,2.06 -0.42,0.98z"/>
  </g>
 </g>
</svg>
